[Module]
VortexTrackerII=0
Version=3.5
Title='s p l e e n' .25-7-2oo2. nocopy
Author=BY NIK-O FOR RGI/POS-WT
ShowInfo=0
NoteTable=1
ChipFreq=1773400
IntFreq=50000
Speed=3
Noise=HEX
PlayOrder=0,1,2,3,4,4,5,5,6,6,0,7,7,7,8,9,10,9,11,12,12,13,13,12,12,13,13,13,14,15,16,17,17,18,18,19,19,20,20,21,21,21,21,21,21,13,13,13,14,3,9,10,9,11,5,6,0,22,24,25,26,27,26,27,26,27,28,29,16,17,18,19,19,19,20,20,20,21,21,21,30,30,12,12,13,14,9,16,10,15,9,17,11,0,7,8,7,8,12,12,22,23,24,25,25,26,26,26,27,26,27,26,27,26,27,28,29,L31


[Ornament1]
12,0,12,0,L0,0

[Ornament2]
-1,-1,L0

[Ornament3]
0,1,L0

[Ornament4]
L0

[Ornament5]
24,0,12,0,L0,0

[Ornament6]
24,0,19,L0

[Ornament7]
L24,0

[Ornament8]
L0

[Ornament9]
L0

[Ornament10]
L0

[Ornament11]
L0

[Ornament12]
L0

[Ornament13]
L0

[Ornament14]
L0

[Ornament15]
L0

[Sample1]
T.E +000_ +00_ 5+ L
T.E +000_ +00_ 8_
T.E +000_ +00_ B_

[Sample2]
T.E -001_ +00_ F_ L
T.E +000_ +00_ 0+

[Sample3]
T.E +000_ +00_ F_
T.E +000_ +00_ F_
T.E +000_ +00_ D_ L
T.E +000_ +00_ C_

[Sample4]
T.E +000_ +00_ A_ L

[Sample5]
T.E -001_ +00_ D_ L
T.E -001_ +00_ D_
T.E -001_ +00_ 9_
T.E -001_ +00_ 9-
T.E -001_ +00_ 9_

[Sample6]
TN. +000_ +00_ F_ L

[Sample7]
T.E +000_ +00_ F_ L

[Sample8]
TN. -FE7^ -08^ F_
T.. -FA0^ +00^ F_
TN. -F40^ -0C^ E_
TN. +F40^ -01^ D_
TN. -F20^ -01^ C- L
.N. +DA0^ +00_ A_
.N. -E20^ +00_ A_

[Sample9]
TN. -FE7_ -08_ F_ L
T.. -F87_ +00_ F_

[Sample10]
T.. -FE7^ +00_ F_
T.. -E20^ +00_ F_
T.. -F20^ +00_ F_
..E +000_ +00_ 0_ L

[Sample11]
.N. +000_ +00_ 8_
.N. +000_ +00_ A_
.N. +000_ +00_ B_
.N. +000_ +00_ C_
.N. +000_ +00_ E_
.N. +000_ +00_ F_
.N. +000_ +00_ 0_ L

[Sample12]
TN. +000_ +00_ F_
.N. +000_ +00_ B_
..E +000_ +00_ 0_ L

[Sample13]
TN. +000_ -08_ F_
TN. +000_ +00_ F_
..E +000_ +00_ 0_ L

[Sample14]
TN. +000_ +00_ F_
.N. +000_ +00_ B_
TN. +000_ +00_ F_
.N. +000_ +00_ B_
..E +000_ +00_ 0_ L

[Sample15]
TN. +000_ -08^ F_
TN. +000_ +00^ F_
TN. +000_ -0C^ E_
TN. +000_ -01^ D_
TN. +000_ -01^ C- L
.N. +000_ +00_ A_
.N. +000_ +00_ A_

[Sample16]
T.. +000_ +00_ F_
T.E +000_ +00_ 0_
T.. +000_ +00_ F_
T.E +000_ +00_ 0_ L

[Sample17]
TN. -1D1^ -01_ F_
T.. -D3B^ +00_ F_
T.. -F20^ +00_ F_
..E +000_ +00_ 0_ L

[Sample18]
... +000_ +00_ 0_ L

[Sample19]
... +000_ +00_ 0_ L

[Sample20]
... +000_ +00_ 0_ L

[Sample21]
... +000_ +00_ 0_ L

[Sample22]
... +000_ +00_ 0_ L

[Sample23]
... +000_ +00_ 0_ L

[Sample24]
... +000_ +00_ 0_ L

[Sample25]
... +000_ +00_ 0_ L

[Sample26]
... +000_ +00_ 0_ L

[Sample27]
... +000_ +00_ 0_ L

[Sample28]
... +000_ +00_ 0_ L

[Sample29]
... +000_ +00_ 0_ L

[Sample30]
... +000_ +00_ 0_ L

[Sample31]
... +000_ +00_ 0_ L

[Pattern0]
.100|..|B-4 1F.D ....|B-4 2F.A ....|B-4 3E.. ....
....|..|--- .... ....|--- .... ....|--- .... ....
....|..|--- .... ....|--- .... ....|--- .... ....
....|..|--- .... ....|--- .... ....|--- .... 19.1
....|..|--- .... ....|--- .... ....|--- .... ....
....|..|--- .... ....|--- .... ....|--- .... ....
....|..|--- .... ....|--- ...D ....|--- .... ....
....|..|--- .... ....|--- .... ....|--- .... ....
....|..|--- .... ....|--- ...F ....|--- .... ....
....|..|--- .... ....|--- .... ....|--- .... ....
....|..|--- .... ....|--- .... ....|--- .... ....
....|..|--- .... ....|--- .... ....|--- .... ....
....|..|--- .... ....|--- .... ....|--- .... ....
....|..|--- .... ....|--- .... ....|--- .... ....
....|..|--- .... ....|--- .... ....|--- .... ....
....|..|--- .... ....|--- .... ....|--- .... ....

[Pattern1]
....|..|--- ...4 ....|--- ...4 B..C|R-- .... ....
....|..|--- ...1 ....|--- ...1 ....|--- .... ....
....|..|--- ...4 ....|--- ...4 B..6|G#5 4F.3 ....
....|..|--- ...1 ....|--- ...1 ....|--- .... ....
....|..|R-- .... ....|R-- .... B..C|G#4 ...1 ....
....|..|--- .... ....|--- .... ....|A#5 ...4 ....
....|..|--- .... ....|--- .... ....|G#5 ...1 ....
....|..|--- .... ....|--- .... ....|B-5 ..24 B..6
....|..|--- .... ....|B-5 5F1. ....|--- .... ....
....|..|--- .... ....|--- .... ....|D#5 .F.5 ....
....|..|--- .... ....|D#5 .... ....|--- .... ....
....|..|--- .... ....|--- .... ....|B-5 ..21 ....
....|..|D#5 5F24 ....|B-5 .... ....|--- .... ....
....|..|R-- .... ....|--- .... ....|G#4 .F.5 ....
....|..|--- .... ....|G#4 .... ....|--- .... ....
....|..|--- .... ....|--- .... ....|A#5 ...6 ....
....|..|--- .... ....|A#5 ...2 ....|--- .... ....
....|..|--- .... ....|--- .... ....|G#4 ...1 ....
....|..|--- .... ....|G#4 .... ....|--- .... ....
....|..|--- .... ....|--- .... ....|B-5 ..26 ....
....|..|--- .... ....|B-5 .... ....|--- .... ....
....|..|--- .... ....|--- .... ....|D#5 .F.. ....
....|..|--- .... ....|D#5 .... ....|--- .... ....
....|..|--- .... ....|--- .... ....|B-5 ..22 ....
....|..|D#5 .... ....|B-5 .... ....|--- .... ....
....|..|R-- .... ....|--- .... ....|G#4 .F.7 ....
....|..|--- .... ....|G#4 .... ....|--- .... ....
....|..|--- .... ....|--- .... ....|C#6 .... ....
....|..|--- .... ....|C#6 ...3 ....|--- .... ....
....|..|--- .... ....|--- .... ....|G#4 ...2 ....
....|..|--- .... ....|G#4 .... ....|--- .... ....
....|..|--- .... ....|--- .... ....|B-5 ..27 ....
....|..|--- .... ....|B-5 .... ....|--- .... ....
....|..|--- .... ....|--- .... ....|D#5 .F.8 ....
....|..|--- .... ....|D#5 .... ....|--- .... ....
....|..|--- .... ....|--- .... ....|B-5 ..23 ....
....|..|D#5 ...5 ....|B-5 .... ....|--- .... ....
....|..|R-- .... ....|--- .... ....|G#4 .F.8 ....
....|..|--- .... ....|G#4 .... ....|--- .... ....
....|..|--- .... ....|--- .... ....|A#5 ...9 ....
....|..|--- .... ....|A#5 ...4 ....|--- .... ....
....|..|--- .... ....|--- .... ....|G#4 ...3 ....
....|..|--- .... ....|G#4 .... ....|--- .... ....
....|..|B-4 1F.1 ....|B-4 2F.3 ....|G#5 ..29 B..C
....|..|--- ...2 ....|--- ...4 ....|E-5 .F.8 ....
....|..|B-4 ...3 ....|B-4 ...5 ....|G#5 ..23 ....
....|..|E-5 5F25 ....|--- ...6 B..6|B-4 .F.9 ....
....|..|B-4 1F.8 ....|--- .... ....|--- .... ....
.100|..|B-4 ...A ....|B-4 ...8 ....|B-4 3E.. ....
....|..|--- .... ....|--- .... ....|--- .... ....
....|..|--- .... ....|--- .... ....|--- .... ....
....|..|--- .... ....|--- ...A ....|--- .... ....
....|..|--- .... ....|--- ...C ....|--- .... ....
....|..|--- .... ....|--- .... ....|--- .... ....
....|..|--- .... ....|--- .... ....|--- .... ....
....|..|--- .... ....|--- .... ....|--- .... ....
....|..|--- ...4 ....|--- ...4 ....|G#5 4F2. ....
....|..|--- .... ....|--- .... ....|--- .... ....
....|..|--- ...1 ....|--- ...1 ....|E-5 .F.. ....
....|..|--- ...4 ....|--- .... ....|--- .... ....
....|..|--- .... ....|--- ...4 ....|G#5 ..24 ....
....|..|E-5 5F25 ....|--- ...1 ....|--- .... ....
....|..|R-- .... ....|R-- .... ....|B-4 .F.9 ....
....|..|--- .... ....|B-4 5F14 ....|--- .... ....

[Pattern2]
....|..|--- .... ....|--- .... ....|G-5 .... ....
....|..|--- .... ....|G-5 .... ....|--- .... ....
....|..|--- .... ....|--- .... ....|B-4 ...5 ....
....|..|--- .... ....|B-4 .... ....|--- .... ....
....|..|--- .... ....|--- .... ....|G#5 .F2A ....
....|..|--- .... ....|G#5 ...5 ....|--- .... ....
....|..|--- .... ....|--- .... ....|E-5 .F.. ....
....|..|--- .... ....|E-5 .... ....|--- .... ....
....|..|--- .... ....|--- .... ....|G#5 ..26 ....
....|..|E-5 .... ....|G#5 .... ....|--- .... ....
....|..|R-- .... ....|--- .... ....|B-4 .F.A ....
....|..|--- .... ....|B-4 .... ....|--- .... ....
....|..|--- .... ....|--- .... ....|A#5 ...9 ....
....|..|--- .... ....|A#5 .... ....|--- .... ....
....|..|--- .... ....|--- .... ....|B-4 ...5 ....
....|..|--- .... ....|B-4 .... ....|--- .... ....
....|..|--- .... ....|--- .... ....|G-5 ..2A ....
....|..|--- .... ....|G-5 .... ....|--- .... ....
....|..|--- .... ....|--- .... ....|D#5 .F.B ....
....|..|--- .... ....|D#5 .... ....|--- .... ....
....|..|A#4 1F.4 ....|--- .... ....|G-5 ..26 ....
....|..|D#5 5F26 ....|G-5 .... ....|--- .... ....
....|..|A#4 1F.. ....|--- .... ....|A#4 .F.B ....
....|..|--- .... ....|A#4 ...6 ....|--- .... ....
....|..|A#4 .... ....|A#4 2F.. ....|G-5 ...A ....
....|..|--- ...7 ....|--- ...7 ....|--- .... ....
....|..|--- ...8 ....|--- ...8 ....|A#4 ...6 ....
....|..|--- ...9 ....|--- ...9 ....|--- .... ....
.100|..|A#4 ...A ....|A#4 ...A ....|A#4 3E.A ....
....|..|--- .... ....|--- .... ....|--- .... 19.1
....|..|--- ...C ....|--- ...C ....|--- .... ....
....|..|--- ...D ....|--- ...D ....|--- .... ....
....|..|--- .... ....|--- .... ....|--- .... ....
....|..|--- .... ....|--- .... ....|--- .... ....
....|..|--- ...5 ....|--- ...5 ....|--- .... ....
....|..|--- .... ....|--- ...A ....|--- .... ....
....|..|A#4 ...D ....|--- ...5 9110|--- .... ....
....|..|--- .... ....|--- .... ....|--- .... ....
....|..|--- .... ....|--- ...A ....|--- .... ....
....|..|--- ...5 ....|--- ...5 ....|--- .... ....
....|..|--- .... ....|--- .... ....|--- .... ....
....|..|--- .... ....|--- .... ....|--- .... ....
....|..|--- .... ....|--- ...A ....|--- .... ....
....|..|A#4 ...C ....|--- ...5 ....|--- .... ....
....|..|--- .... ....|--- .... ....|--- .... ....
....|..|--- .... ....|--- .... ....|--- .... ....
....|..|--- ...5 ....|--- .... B.18|R-- .... ....

[Pattern3]
..4B|..|C-4 AC.F ....|G#2 7F1F B..3|C-4 8F.F ....
....|..|G#1 7... B..9|--- .... ....|--- .... ....
....|..|--- .... ....|R-- .... B..6|--- .... ....
....|..|--- .... ....|G#2 ...B ....|C-4 ...B ....
....|..|G#1 .F.. ....|--- .... ....|--- .... ....
..38|..|C#4 .C.. ....|R-- .... ....|--- .... ....
..25|..|G#4 .C.. ....|--- .... ....|C-4 ...8 ....
....|..|G#1 .... ....|--- .... ....|--- .... ....
..13|..|G#1 .E.. B.18|--- .... ....|--- .... ....
..25|..|G#4 .C.. B..6|B-2 .... ....|--- .... ....
..38|..|C#4 .C.. ....|--- .... ....|--- .... ....
..20|..|B-1 .C.. ....|B-1 ...F ....|--- .... ....
....|..|--- .... ....|--- .... ....|--- .... ....
..25|..|G#1 .C.. ....|G#2 .... ....|--- .... ....
....|..|--- .... ....|--- .... ....|--- .... ....
....|..|--- .... ....|R-- .... ....|--- .... ....
....|..|--- .... ....|G#2 ...B ....|--- .... ....
....|..|G#1 .F.. ....|--- .... ....|--- .... ....
..38|..|C#4 .C.. ....|R-- .... ....|--- .... ....
..25|..|G#4 .C.. ....|--- .... ....|C-4 B..F ....
....|..|G#1 .... ....|--- .... ....|--- .... ....
..13|..|G#1 .E.. ....|--- .... ....|B-8 C... ....
....|..|--- .... ....|--- .... ....|--- .... ....
..32|..|D#4 .C.. ....|--- .... ....|B-8 ...D ....
..38|..|C#4 .C.. ....|--- .... ....|--- .... ....
..25|..|G#4 .C.. ....|B-2 .... ....|B-8 ...B ....
..38|..|C#4 .C.. ....|--- .... ....|--- .... ....
..20|..|B-1 .C.. ....|B-1 ...F ....|B-8 7..8 ....
....|..|--- .... ....|--- .... ....|--- .... ....
..4B|..|C-4 AC.. ....|G#2 .... B..3|B-8 C..F ....
....|..|G#1 7... B..9|--- .... ....|--- .... ....
....|..|--- .... ....|R-- .... B..6|--- .... ....
....|..|--- .... ....|G#2 ...B ....|B-8 ...D ....
....|..|G#1 .F.. ....|--- .... ....|--- .... ....
..38|..|C#4 .C.. ....|R-- .... ....|--- .... ....
..25|..|G#4 .C.. ....|--- .... ....|B-8 ...B ....
....|..|G#1 .... ....|--- .... ....|--- .... ....
..13|..|G#1 .E.. ....|--- .... ....|--- .... ....
....|..|--- .... ....|--- .... ....|--- .... ....
..32|..|D#4 .C.. ....|--- .... ....|--- .... ....
..38|..|C#4 .C.. ....|--- .... ....|--- .... ....
..25|..|G#4 .C.. ....|B-2 .... ....|--- .... ....
..38|..|C#4 .C.. ....|--- .... ....|--- .... ....
..20|..|B-1 .C.. ....|B-1 ...F ....|--- .... ....
....|..|--- .... ....|--- .... ....|--- .... ....
..25|..|G#1 .C.. ....|G#2 .... ....|B-8 ...D ....
....|..|--- .... ....|--- .... ....|--- .... ....
....|..|--- .... ....|R-- .... ....|--- .... ....
....|..|--- .... ....|G#2 ...B ....|A#8 .... ....
....|..|G#1 .F.. ....|--- .... ....|--- .... ....
..38|..|C#4 .C.. ....|R-- .... ....|--- .... ....
..25|..|G#4 .C.. ....|--- .... ....|A#8 .... ....
....|..|G#1 .... ....|--- .... ....|--- .... ....
..13|..|G#1 .E.. ....|--- .... ....|A-8 .... ....
....|..|--- .... ....|--- .... ....|--- .... ....
..20|..|B-1 .C.. 6.90|B-1 ...F 6.90|A-8 E... B..C
....|..|B-1 .... 6.90|B-1 .... 6.90|A-8 ...B ....
....|..|B-1 .... 6.90|B-1 .... 6.90|A-8 .... ....

[Pattern4]
..4B|.5|C-4 AC.. ....|G#2 .F1. B..3|C-4 8F.F ....
....|.5|G#1 7... ....|--- .... ....|--- .... ....
....|.5|--- .... ....|--- .... ....|--- .... ....
....|.5|--- .... ....|--- .... ....|--- .... ....
....|..|G#4 6..D ....|B-8 CF.D ....|G#2 7F1. ....
....|..|--- .... ....|--- .... ....|--- .... ....
....|..|C-4 A..F ....|G#2 7F1B ....|G#3 .... ....
....|..|--- .... ....|--- .... ....|--- .... ....
....|..|C-4 8... ....|--- .... ....|G#2 ...B ....
....|..|--- .... ....|--- .... ....|--- .... ....
..38|..|G#4 DC.B ....|R-- .... ....|G#3 .... ....
....|..|--- .... ....|--- .... ....|--- .... ....
..25|..|C-4 AC.F ....|B-8 EF.D ....|G#1 ...F ....
....|..|G#1 7... ....|--- .... ....|--- .... ....
....|..|C-4 A... ....|--- .... ....|--- .... ....
....|..|G#4 7... ....|--- .... ....|--- .... ....
..13|..|G#1 .E.. ....|--- .... ....|G#2 .... ....
....|..|--- .... ....|--- .... ....|--- .... ....
....|..|C-4 A... ....|--- .... ....|G#3 .... ....
....|..|G#1 7... ....|--- .... ....|--- .... ....
..32|..|C-4 9C.. 6.24|B-8 D... ....|G#2 ...B ....
....|..|D#4 7... ....|--- .... ....|--- .... ....
..38|..|C-4 AC.. ....|B-8 ...B ....|G#3 .... ....
....|..|--- .... ....|--- .... ....|--- .... ....
....|..|C-4 8... ....|B-2 7F1. ....|B-1 ...F ....
....|..|--- .... ....|--- .... ....|--- .... ....
....|..|C#4 7... ....|--- .... ....|--- .... ....
....|..|--- .... ....|--- .... ....|--- .... ....
..20|..|C-4 9C.. ....|B-8 DF.D ....|B-2 .... ....
....|..|--- .... ....|B-1 7..F ....|--- .... ....
....|..|C-4 A... ....|--- .... ....|B-3 .... ....
....|..|B-1 7... ....|--- .... ....|--- .... ....
..25|..|C-4 AC.. ....|G#2 ..1. ....|G#1 .... ....
....|..|G#1 7... ....|--- .... ....|--- .... ....
....|..|--- .... ....|--- .... ....|--- .... ....
....|..|--- .... ....|--- .... ....|--- .... ....
....|..|G#4 6..D ....|B-8 CF.D ....|G#2 .... ....
....|..|--- .... ....|--- .... ....|--- .... ....
....|..|C-4 A..F ....|G#2 7F1B ....|G#3 .... ....
....|..|--- .... ....|--- .... ....|--- .... ....
....|..|C-4 8... ....|--- .... ....|G#2 ...B ....
....|..|--- .... ....|--- .... ....|--- .... ....
..38|..|G#4 DC.B ....|R-- .... ....|G#3 .... ....
....|..|--- .... ....|--- .... ....|--- .... ....
..25|..|C-4 AC.F ....|B-8 EF.D ....|G#1 ...F ....
....|..|G#1 7... ....|--- .... ....|--- .... ....
....|..|C-4 A... ....|--- .... ....|--- .... ....
....|..|G#4 7... ....|--- .... ....|--- .... ....
..13|..|G#1 .E.. ....|--- .... ....|G#2 .... ....
....|..|--- .... ....|--- .... ....|--- .... ....
....|..|C-4 A... ....|--- .... ....|G#3 .... ....
....|..|G#1 7... ....|--- .... ....|--- .... ....
..32|..|C-4 9C.. 6.24|B-8 D... ....|G#2 ...B ....
....|..|D#4 7... ....|--- .... ....|--- .... ....
..38|..|C-4 AC.. ....|B-8 ...B ....|G#3 .... ....
....|..|--- .... ....|--- .... ....|--- .... ....
....|..|C-4 8... ....|B-2 7F1. ....|B-1 ...F ....
....|..|--- .... ....|--- .... ....|--- .... ....
....|..|C#4 7... ....|--- .... ....|--- .... ....
....|..|--- .... ....|--- .... ....|--- .... ....
..20|..|C-4 9C.. ....|B-8 DF.D ....|B-2 .... ....
....|..|--- .... ....|B-1 7..F ....|--- .... ....
....|..|C-4 A... ....|--- .... ....|B-3 .... ....
....|..|B-1 7... ....|--- .... ....|--- .... ....

[Pattern5]
..4B|.8|C-4 AC.. ....|G#2 .F1. ....|C-4 8F.F ....
....|.D|G#1 7... ....|--- .... ....|G#4 6... ....
....|.D|--- .... ....|--- .... ....|--- .... ....
....|.D|--- .... ....|--- .... ....|--- .... ....
....|..|G#4 6..D ....|B-8 CF.. ....|G#2 7F1. ....
....|..|--- .... ....|--- .... ....|--- .... ....
....|..|C-4 A..F ....|G#2 7F1B ....|G#3 .... ....
....|..|--- .... ....|--- .... ....|--- .... ....
....|..|C-4 8... ....|B-4 F..F ....|G#2 ...B ....
....|..|--- .... ....|--- .... ....|--- .... ....
..38|..|G#4 DC.B ....|R-- .... ....|G#3 .... ....
....|..|--- .... ....|--- .... ....|--- .... ....
..25|..|C-4 8C.F ....|B-8 DF.. ....|G#1 ...F ....
....|..|G#1 7... ....|--- .... ....|--- .... ....
....|..|C-4 A... ....|--- .... ....|--- .... ....
....|..|G#4 7... ....|--- .... ....|--- .... ....
..13|..|G#1 .E.. ....|--- .... ....|G#2 .... ....
....|..|--- .... ....|--- .... ....|--- .... ....
....|..|C-4 A... ....|--- .... ....|G#3 .... ....
....|..|G#1 7... ....|--- .... ....|--- .... ....
..32|..|C-4 9C.. 6.24|B-8 .... ....|G#2 ...B ....
....|..|D#4 7... ....|--- .... ....|--- .... ....
..38|..|C-4 AC.. ....|B-8 ...B ....|G#3 .... ....
....|..|--- .... ....|--- .... ....|--- .... ....
....|..|C-4 8... ....|B-4 FF1F ....|B-1 ...F ....
....|..|--- .... ....|--- .... ....|--- .... ....
....|..|C#4 7... ....|B-2 7..B ....|--- .... ....
....|..|--- .... ....|--- .... ....|--- .... ....
..20|..|C-4 9C.. ....|B-8 DF.F ....|B-2 .... ....
....|..|--- .... ....|B-1 7... ....|--- .... ....
....|..|C-4 A... ....|--- .... ....|B-3 .... ....
....|..|B-1 7... ....|--- .... ....|--- .... ....
..25|..|C-4 AC.. ....|G#2 ..1. ....|G#1 .... ....
....|..|G#1 7... ....|--- .... ....|--- .... ....
....|..|--- .... ....|--- .... ....|--- .... ....
....|..|--- .... ....|--- .... ....|--- .... ....
....|..|G#4 6..D ....|B-8 CF.. ....|G#2 .... ....
....|..|--- .... ....|--- .... ....|--- .... ....
....|..|C-4 A..F ....|G#2 7F1B ....|G#3 .... ....
....|..|--- .... ....|--- .... ....|--- .... ....
....|..|C-4 8... ....|B-4 F..F ....|G#2 ...B ....
....|..|--- .... ....|--- .... ....|--- .... ....
..38|..|G#4 DC.B ....|R-- .... ....|G#3 .... ....
....|..|--- .... ....|--- .... ....|--- .... ....
..25|..|C-4 AC.F ....|B-8 EF.. ....|G#1 ...F ....
....|..|G#1 7... ....|--- .... ....|--- .... ....
....|..|C-4 A... ....|--- .... ....|--- .... ....
....|..|G#4 7... ....|--- .... ....|--- .... ....
..13|..|G#1 .E.. ....|--- .... ....|G#2 .... ....
....|..|--- .... ....|--- .... ....|--- .... ....
....|..|C-4 A... ....|--- .... ....|G#3 .... ....
....|..|G#1 7... ....|--- .... ....|--- .... ....
..32|..|C-4 9C.. 6.24|B-8 D... ....|G#2 ...B ....
....|..|D#4 7... ....|--- .... ....|--- .... ....
..38|..|C-4 AC.. ....|B-8 ...B ....|G#3 .... ....
....|..|--- .... ....|--- .... ....|--- .... ....
....|..|C-4 8... ....|B-4 FF1F ....|B-1 ...F ....
....|..|--- .... ....|--- .... ....|--- .... ....
....|..|C#4 7... ....|B-2 7..B ....|--- .... ....
....|..|--- .... ....|--- .... ....|--- .... ....
..20|..|C-4 9C.. ....|B-8 DF.F ....|B-2 .... ....
....|..|--- .... ....|B-1 7... ....|--- .... ....
....|..|C-4 A... ....|--- .... ....|B-3 .... ....
....|..|B-1 7... ....|--- .... ....|--- .... ....

[Pattern6]
..4B|.8|C-4 AC.. ....|D#4 A... ....|C-4 8F.. ....
....|.D|G#1 7... ....|G#2 7... ....|G#4 6... ....
....|.D|--- .... ....|--- .... ....|--- .... ....
....|.D|--- .... ....|--- .... ....|--- .... ....
..4B|..|G#4 6... ....|B-8 C... ....|G#2 GC1. ....
....|..|--- .... ....|--- .... ....|--- .... ....
....|..|C-4 A... ....|D#4 A... ....|G#3 .... ....
....|..|--- .... ....|G#2 7..B ....|--- .... ....
....|..|C-4 8... ....|B-4 FF1F ....|G#2 ...B ....
....|..|--- .... ....|--- .... ....|--- .... ....
..38|..|G#4 D..D ....|R-- .... ....|G#3 .C1. ....
....|..|--- .... ....|--- .... ....|--- .... ....
..25|..|C-4 8..F ....|B-8 DF.. ....|G#1 .C1F ....
....|..|G#1 7... ....|--- .... ....|--- .... ....
....|..|C-4 A... ....|D#4 A... ....|--- .... ....
....|..|G#4 7... ....|--- .... ....|--- .... ....
..13|..|G#1 .... ....|--- .... ....|G#2 .E1. ....
....|..|--- .... ....|--- .... ....|--- .... ....
....|..|C-4 A... ....|D#4 .... ....|G#3 .... ....
....|..|G#1 7... ....|--- .... ....|--- .... ....
..32|..|C-4 9... 6.24|B-8 D... ....|G#2 .C1B ....
....|..|D#4 7... ....|--- .... ....|--- .... ....
..38|..|C-4 A... ....|B-8 ...B ....|G#3 .C1. ....
....|..|--- .... ....|--- .... ....|--- .... ....
..25|..|C-4 8... ....|B-4 FF1F ....|B-1 .C1F ....
....|..|--- .... ....|--- .... ....|--- .... ....
..38|..|C#4 7... ....|B-2 7..B ....|C#2 .C.. ....
....|..|--- .... ....|--- .... ....|--- .... ....
..20|..|C-4 9... ....|B-8 DF.F ....|B-2 .C1. ....
....|..|--- .... ....|B-1 7... ....|--- .... ....
....|..|C-4 A... ....|D#4 A... ....|B-3 .... ....
....|..|B-1 7... ....|B-1 7... ....|--- .... ....
..25|..|C-4 A... ....|D#4 A... ....|G#1 .C1. ....
....|..|G#1 7... ....|G#2 7... ....|--- .... ....
....|..|--- .... ....|--- .... ....|--- .... ....
....|..|--- .... ....|--- .... ....|--- .... ....
....|..|G#4 6... ....|B-8 C... ....|G#2 .... ....
....|..|--- .... ....|--- .... ....|--- .... ....
....|..|C-4 A... ....|D#4 A... ....|G#3 .... ....
....|..|--- .... ....|G#2 7..B ....|--- .... ....
....|..|C-4 8... ....|B-4 FF1F ....|G#2 ...B ....
....|..|--- .... ....|--- .... ....|--- .... ....
..38|..|G#4 D..D ....|R-- .... ....|G#3 .C1. ....
....|..|--- .... ....|--- .... ....|--- .... ....
..25|..|C-4 8..F ....|B-8 DF.. ....|G#1 .C1F ....
....|..|G#1 7... ....|--- .... ....|--- .... ....
....|..|C-4 A... ....|D#4 A... ....|--- .... ....
....|..|G#4 7... ....|--- .... ....|--- .... ....
..13|..|G#1 .... ....|--- .... ....|G#2 .E1. ....
....|..|--- .... ....|--- .... ....|--- .... ....
....|..|C-4 A... ....|D#4 .... ....|G#3 .... ....
....|..|G#1 7... ....|--- .... ....|--- .... ....
..32|..|C-4 9... 6.24|B-8 D... ....|G#2 .C1B ....
....|..|D#4 7... ....|--- .... ....|--- .... ....
..38|..|C-4 A... ....|B-8 ...B ....|G#3 .C1. ....
....|..|--- .... ....|--- .... ....|--- .... ....
..25|..|C-4 8... ....|B-4 FF1F ....|B-1 .C1F ....
....|..|--- .... ....|--- .... ....|--- .... ....
..38|..|C#4 7... ....|B-2 7..B ....|C#2 .C.. ....
....|..|--- .... ....|--- .... ....|--- .... ....
..20|..|C-4 9... ....|B-8 DF.F ....|B-2 .C1. ....
....|..|--- .... ....|B-1 7... ....|--- .... ....
....|..|C-4 A... ....|D#4 A... ....|B-3 .... ....
....|..|B-1 7... ....|B-1 7... ....|--- .... ....

[Pattern7]
..4B|.8|C-4 AC.F ....|D#4 AF.F ....|C-4 8F.. ....
....|.D|G#1 7... ....|G#2 7... ....|B-4 6... ....
....|.D|--- .... ....|--- .... ....|--- .... ....
....|.D|--- .... ....|--- .... ....|--- .... ....
..4B|..|B-4 6... ....|B-8 CC.. ....|G#2 GC1. ....
....|..|--- .... ....|--- .... ....|--- .... ....
....|..|C-4 A... ....|D#4 A... ....|G#3 .... ....
....|..|--- .... ....|G#1 7... ....|--- .... ....
....|..|C-4 8... ....|B-4 FF1. ....|G#2 ...B ....
....|..|--- .... ....|--- .... ....|--- .... ....
..38|..|B-4 D..D ....|C-8 7C.. 11.3|G#3 .C1. ....
....|..|--- .... ....|--- .... ....|--- .... ....
..25|..|C-4 8..F ....|B-7 FF1. ....|G#1 .C1F ....
....|..|G#1 7... ....|--- .... ....|--- .... ....
..25|..|C-4 A... ....|D#4 AC.. ....|--- .... ....
....|..|G#4 7... ....|G#2 7... ....|--- .... ....
..13|..|G#1 .... ....|G#3 .... ....|G#2 .E1. ....
....|..|--- .... ....|--- .... ....|--- .... ....
....|..|C-4 A... ....|D#4 A... ....|G#3 .... ....
....|..|G#1 7... ....|--- .... ....|--- .... ....
..32|..|C-4 9... 6.24|B-8 D... ....|G#2 .C1B ....
....|..|D#4 7... ....|--- .... ....|--- .... ....
..38|..|C-4 A... ....|B-8 ...B ....|G#3 .C1. ....
....|..|--- .... ....|--- .... ....|--- .... ....
..25|..|C-4 8... ....|B-4 FF1F ....|B-1 .C1F ....
....|..|--- .... ....|--- .... ....|--- .... ....
..38|..|C#4 7... ....|B-2 7..B ....|C#2 .C.. ....
....|..|--- .... ....|--- .... ....|--- .... ....
..20|..|C-4 9... ....|B-8 DC.F ....|B-2 .C1. ....
....|..|--- .... ....|B-1 7... ....|--- .... ....
....|..|C-4 A... ....|D#4 A... ....|B-3 .... ....
....|..|B-1 7... ....|B-1 7... ....|--- .... ....
..25|..|C-4 A... ....|D#4 A... ....|G#1 .C1. ....
....|..|G#1 7... ....|G#2 7... ....|--- .... ....
....|..|--- .... ....|--- .... ....|--- .... ....
....|..|--- .... ....|--- .... ....|--- .... ....
....|..|B-4 6... ....|B-8 C... ....|G#2 .... ....
....|..|--- .... ....|--- .... ....|--- .... ....
....|..|C-4 A... ....|D#4 A... ....|G#3 .... ....
....|..|--- .... ....|G#2 7..B ....|--- .... ....
....|..|C-4 8... ....|B-4 FF1F ....|G#2 ...B ....
....|..|--- .... ....|--- .... ....|--- .... ....
..38|..|B-4 D..D ....|G-7 7C.. 21.1|G#3 .C1. ....
....|..|--- .... ....|--- .... ....|--- .... ....
..25|..|C-4 8..F ....|B-7 FF1. ....|G#1 .C1F ....
....|..|G#1 7... ....|--- .... ....|--- .... ....
..26|..|C-4 A... ....|D#4 AC.. ....|--- .... ....
....|..|G#4 7... ....|G#2 7... ....|--- .... ....
..13|..|G#1 .... ....|G#3 .... ....|G#2 .E1. ....
....|..|--- .... ....|--- .... ....|--- .... ....
....|..|C-4 A... ....|D#4 A... ....|G#3 .... ....
....|..|G#1 7... ....|--- .... ....|--- .... ....
..32|..|C-4 9... 6.24|B-8 D... ....|G#2 .C1B ....
....|..|D#4 7... ....|--- .... ....|--- .... ....
..38|..|C-4 A... ....|B-8 ...B ....|G#3 .C1. ....
....|..|--- .... ....|--- .... ....|--- .... ....
..25|..|C-4 8... ....|B-4 FF1F ....|B-1 .C1F ....
....|..|--- .... ....|--- .... ....|--- .... ....
..38|..|C#4 7... ....|B-2 7..B ....|C#2 .C.. ....
....|..|--- .... ....|--- .... ....|--- .... ....
..20|..|C-4 9... ....|B-8 DC.F ....|B-2 .C1. ....
....|..|--- .... ....|B-1 7... ....|--- .... ....
....|..|C-4 A... ....|D#4 A... ....|B-3 .... ....
....|..|B-1 7... ....|B-1 7... ....|--- .... ....

[Pattern8]
..4B|.8|C-4 AC.. ....|D#4 AF.F ....|C-4 8F.. ....
....|.D|G#1 7... ....|G#2 7... ....|B-4 6... ....
....|.D|--- .... ....|--- .... ....|--- .... ....
....|.D|--- .... ....|--- .... ....|--- .... ....
..4B|..|B-4 6... ....|B-8 CC.. ....|G#2 GC1. ....
....|..|--- .... ....|--- .... ....|--- .... ....
....|..|C-4 A... ....|D#4 A... ....|G#3 .... ....
....|..|--- .... ....|G#1 7... ....|--- .... ....
....|..|C-4 8... ....|B-4 FF1. ....|G#2 ...B ....
....|..|--- .... ....|--- .... ....|--- .... ....
..38|..|B-4 D..D ....|C-8 7C.. 11.3|G#3 .C1. ....
....|..|--- .... ....|--- .... ....|--- .... ....
..25|..|C-4 8..F ....|B-7 FF1. ....|G#1 .C1F ....
....|..|G#1 7... ....|--- .... ....|--- .... ....
..25|..|C-4 A... ....|D#4 AC.. ....|--- .... ....
....|..|G#4 7... ....|G#2 7... ....|--- .... ....
..13|..|G#1 .... ....|G#3 .... ....|G#2 .E1. ....
....|..|--- .... ....|--- .... ....|--- .... ....
....|..|C-4 A... ....|D#4 A... ....|G#3 .... ....
....|..|G#1 7... ....|--- .... ....|--- .... ....
..32|..|C-4 9... 6.24|B-8 D... ....|G#2 .C1B ....
....|..|D#4 7... ....|--- .... ....|--- .... ....
..38|..|C-4 A... ....|B-8 ...B ....|G#3 .C1. ....
....|..|--- .... ....|--- .... ....|--- .... ....
..25|..|C-4 8... ....|B-4 FF1F ....|B-1 .C1F ....
....|..|--- .... ....|--- .... ....|--- .... ....
..38|..|C#4 7... ....|B-2 7..B ....|C#2 .C.. ....
....|..|--- .... ....|--- .... ....|--- .... ....
..20|..|C-4 9... ....|B-8 DC.F ....|B-2 .C1. ....
....|..|--- .... ....|B-1 7... ....|--- .... ....
....|..|C-4 A... ....|D#4 A... ....|B-3 .... ....
....|..|B-1 7... ....|B-1 7... ....|--- .... ....
..25|..|C-4 A... ....|D#4 A... ....|G#1 .C1. ....
....|..|G#1 7... ....|G#2 7... ....|--- .... ....
....|..|--- .... ....|--- .... ....|--- .... ....
....|..|--- .... ....|--- .... ....|--- .... ....
....|..|B-4 6... ....|B-8 C... ....|G#2 .... ....
....|..|--- .... ....|--- .... ....|--- .... ....
....|..|C-4 A... ....|D#4 A... ....|G#3 .... ....
....|..|--- .... ....|G#2 7..B ....|--- .... ....
....|..|C-4 8... ....|B-4 FF1F ....|G#2 ...B ....
....|..|--- .... ....|--- .... ....|--- .... ....
..38|..|B-4 D..D ....|G-7 7C.. 21.1|G#3 .C1. ....
....|..|--- .... ....|--- .... ....|--- .... ....
..25|..|C-4 8..F ....|B-7 FF1. ....|G#1 .C1F ....
....|..|G#1 7... ....|--- .... ....|--- .... ....
..26|..|C-4 A... ....|D#4 AC.. ....|--- .... ....
....|..|G#4 7... ....|G#2 7... ....|--- .... ....
..13|..|C-4 8... ....|G#3 .... ....|G#2 .E1. ....
....|..|--- .... ....|--- .... ....|--- .... ....
....|..|C-4 A... ....|D#4 A... ....|G#3 .... ....
....|..|G#1 7... ....|--- .... ....|--- .... ....
..32|..|C-4 9... 6.24|B-8 D... ....|G#2 .C1B ....
....|..|D#4 7... ....|--- .... ....|--- .... ....
..38|..|C-4 A... ....|B-8 ...B ....|G#3 .C1. ....
....|..|--- .... ....|--- .... ....|--- .... ....
..25|..|C-4 8... ....|B-4 FF1F ....|B-1 .C1F ....
....|..|--- .... ....|--- .... ....|--- .... ....
..38|..|C-4 .... ....|B-2 7..B ....|C#2 .C.. ....
....|..|--- .... ....|--- .... ....|--- .... ....
..20|..|C-4 9... ....|B-8 DC.F ....|B-2 .C1. ....
....|..|--- .... ....|B-1 7... ....|--- .... ....
....|..|C-4 A... ....|D#4 A... ....|B-3 .... ....
....|..|B-1 7... ....|B-1 7... ....|--- .... ....

[Pattern9]
....|.8|C-4 A..F ....|G#1 7F1. B..3|C-4 8F.F ....
..13|.D|G#1 7E.. ....|--- .... ....|G#4 6... ....
....|.D|--- .... ....|--- .... ....|--- .... ....
....|.D|--- .... ....|--- .... ....|--- .... ....
....|..|--- .... ....|G#2 .... ....|R-- .... ....
....|..|--- .... ....|--- .... ....|--- .... ....
....|.D|C-4 A... ....|G#3 .... ....|G#4 ...B ....
....|.D|G#1 7... ....|--- .... ....|--- .... ....
....|.D|--- .... ....|G#2 ...B ....|--- .... ....
....|.D|--- .... ....|--- .... ....|--- .... ....
....|..|--- .... ....|G#3 .... ....|R-- .... ....
....|..|--- .... ....|--- .... ....|--- .... ....
....|.D|C-4 A... ....|G#1 ...F ....|G#4 ...8 ....
....|.D|G#1 7... ....|--- .... ....|--- .... ....
....|.D|--- .... ....|--- .... ....|--- .... ....
....|.D|--- .... ....|--- .... ....|--- .... ....
....|..|G#1 .F.4 ....|G#2 ...B ....|G#4 3..B ....
....|..|--- .... ....|--- .... ....|--- .... ....
....|..|--- .... ....|G#3 .... ....|--- .... ....
....|..|--- .... ....|--- .... ....|G#4 ...6 ....
....|..|R-- .... ....|G#2 ...8 ....|--- .... ....
....|..|--- .... ....|--- .... ....|--- .... ....
....|..|--- .... ....|G#3 .... ....|A#4 ..3B ....
....|..|--- .... ....|--- .... ....|--- .... ....
....|..|C-4 8..F ....|B-1 ...F ....|--- .... ....
....|..|--- .... ....|--- .... ....|G#4 .F.6 ....
....|..|R-- .... ....|--- .... ....|--- .... ....
....|..|--- .... ....|--- .... ....|--- .... ....
....|..|--- .... ....|B-2 .... ....|B-4 ...C ....
....|..|--- .... ....|--- .... ....|--- .... ....
....|..|C-4 ...B ....|B-3 .... ....|--- .... ....
....|..|--- .... ....|--- .... ....|--- .... ....
..13|..|C-4 AE.F ....|G#1 .... ....|C#5 .... ....
....|..|G#1 7... ....|--- .... ....|--- .... ....
....|..|--- .... ....|--- .... ....|--- .... ....
....|..|--- .... ....|--- .... ....|B-4 ...6 ....
....|..|C-4 8... ....|G#2 .... ....|--- .... ....
....|..|--- .... ....|--- .... ....|--- .... ....
....|..|R-- .... ....|G#3 .... ....|D#5 ..3D ....
....|..|--- .... ....|--- .... ....|--- .... ....
....|..|--- .... ....|G#2 ...B ....|--- .... ....
....|..|--- .... ....|--- .... ....|C#5 .F.6 ....
....|..|C-4 ...B ....|G#3 .... ....|--- .... ....
....|..|--- .... ....|--- .... ....|--- .... ....
....|..|C-4 A..F ....|G#1 ...F ....|E-5 ...D ....
....|..|G#1 7... ....|--- .... ....|--- .... ....
....|..|--- .... ....|--- .... ....|--- .... ....
....|..|--- .... ....|--- .... ....|--- .... ....
....|..|G#1 .F.4 ....|G#2 .... ....|D#5 .... 31.1
....|..|--- .... ....|--- .... ....|--- .... ....
....|..|--- .... ....|G#3 .... ....|--- .... ....
....|..|--- .... ....|--- .... ....|--- .... ....
....|..|R-- .... ....|G#2 ...B ....|E-5 ...A ....
....|..|--- .... ....|--- .... ....|--- .... ....
....|..|--- .... ....|G#3 .... ....|--- .... ....
....|..|--- .... ....|--- .... ....|--- .... ....
....|..|--- .... ....|B-1 ...F ....|D#5 .... 31.1
....|..|--- .... ....|--- .... ....|--- .... ....
....|..|--- .... ....|--- .... ....|--- .... ....
....|..|--- .... ....|--- .... ....|--- .... ....
....|..|--- .... ....|B-2 .... ....|E-5 ...8 ....
....|..|--- .... ....|--- .... ....|--- .... ....
....|..|--- .... ....|B-3 .... ....|--- .... ....
....|..|--- .... ....|--- .... ....|--- .... ....

[Pattern10]
....|..|C-4 A..F ....|G#1 .... ....|D#5 .... 31.1
..13|..|G#1 7E.. ....|--- .... ....|--- .... ....
....|..|--- .... ....|--- .... ....|--- .... ....
....|..|--- .... ....|--- .... ....|--- .... ....
....|..|--- .... ....|G#2 .... ....|E-5 ...5 ....
....|..|--- .... ....|--- .... ....|--- .... ....
....|..|C-4 A... ....|G#3 .... ....|--- .... ....
....|..|G#1 7... ....|--- .... ....|--- .... ....
....|..|--- .... ....|G#2 ...B ....|D#5 .... 31.1
....|..|--- .... ....|--- .... ....|--- .... ....
....|..|--- .... ....|G#3 .... ....|--- .... ....
....|..|--- .... ....|--- .... ....|--- .... ....
....|..|C-4 A... ....|G#1 ...F ....|R-- .... ....
....|..|G#1 7... ....|--- .... ....|--- .... ....
....|..|--- .... ....|--- .... ....|--- .... ....
....|..|--- .... ....|--- .... ....|--- .... ....
....|..|G#1 .F.4 ....|G#2 ...B ....|D#5 ...D ....
....|..|--- .... ....|--- .... ....|--- .... ....
....|..|--- .... ....|G#3 .... ....|--- .... ....
....|..|--- .... ....|--- .... ....|--- ...6 ....
....|..|R-- .... ....|G#2 ...8 ....|--- .... ....
....|..|--- .... ....|--- .... ....|--- .... ....
....|..|--- .... ....|G#3 .... ....|E-5 .F3D ....
....|..|--- .... ....|--- .... ....|--- .... ....
....|..|C-4 8..F ....|B-1 ...F ....|--- .... ....
....|..|--- .... ....|--- .... ....|D#5 .F.6 ....
....|..|R-- .... ....|--- .... ....|--- .... ....
....|..|--- .... ....|--- .... ....|--- .... ....
....|..|--- .... ....|B-2 .... ....|G-5 ...D ....
....|..|--- .... ....|--- .... ....|--- .... ....
....|..|C-4 ...B ....|B-3 .... ....|--- .... ....
....|..|--- .... ....|--- .... ....|--- .... ....
..15|..|C-4 AE.F ....|F#1 .... ....|F#5 .... ....
....|..|F#1 7... ....|--- .... ....|--- .... ....
....|..|--- .... ....|--- .... ....|--- .... ....
....|..|--- .... ....|--- .... ....|G-5 ...6 ....
....|..|C-4 8... ....|F#2 .... ....|--- .... ....
....|..|--- .... ....|--- .... ....|--- .... ....
....|..|R-- .... ....|F#3 .... ....|F#5 ...A ....
....|..|--- .... ....|--- .... ....|--- .... ....
....|..|--- .... ....|F#2 ...B ....|--- .... ....
....|..|--- .... ....|--- .... ....|G-5 ...6 ....
....|..|C-4 ...B ....|F#3 .... ....|--- .... ....
....|..|--- .... ....|--- .... ....|--- .... ....
....|..|C-4 A..F ....|F#1 ...F ....|C#5 ...D ....
....|..|F#1 7... ....|--- .... ....|--- .... ....
....|..|--- .... ....|--- .... ....|--- .... ....
....|..|--- .... ....|--- .... ....|--- .... ....
....|..|G#1 .F.4 ....|F#2 .... ....|F#5 .... 31.F
....|..|--- .... ....|--- .... ....|--- .... ....
....|..|--- .... ....|F#3 .... ....|--- .... ....
....|..|--- .... ....|--- .... ....|--- .... ....
....|..|R-- .... ....|F#2 ...B ....|C#5 ...8 ....
....|..|--- .... ....|--- .... ....|--- .... ....
....|..|--- .... ....|F#3 .... ....|--- .... ....
....|..|--- .... ....|--- .... ....|--- .... ....
....|..|C-4 8..F 6.20|G-1 ...F ....|F#5 .... 31.F
....|..|--- .... ....|--- .... ....|--- .... ....
....|..|--- .... ....|--- .... ....|--- .... ....
....|..|--- .... ....|--- .... ....|--- .... ....
....|..|--- .... ....|G-2 .... ....|C#5 ...6 ....
....|..|--- .... ....|--- .... ....|--- .... ....
....|..|C-4 ...B 6.20|G-3 .... ....|--- .... ....
....|..|--- .... ....|--- .... ....|--- .... ....

[Pattern11]
....|..|C-4 A..F ....|G#1 .... ....|D#5 .... 31.1
..13|..|G#1 7E.. ....|--- .... ....|--- .... ....
....|..|--- .... ....|--- .... ....|--- .... ....
....|..|--- .... ....|--- .... ....|--- .... ....
....|..|--- .... ....|G#2 .... ....|E-5 ...5 ....
....|..|--- .... ....|--- .... ....|--- .... ....
....|..|C-4 A... ....|G#3 .... ....|--- .... ....
....|..|G#1 7... ....|--- .... ....|--- .... ....
....|..|--- .... ....|G#2 ...B ....|D#5 .... 31.1
....|..|--- .... ....|--- .... ....|--- .... ....
....|..|--- .... ....|G#3 .... ....|--- .... ....
....|..|--- .... ....|--- .... ....|--- .... ....
....|..|C-4 A... ....|G#1 ...F ....|R-- .... ....
....|..|G#1 7... ....|--- .... ....|--- .... ....
....|..|--- .... ....|--- .... ....|--- .... ....
....|..|--- .... ....|--- .... ....|--- .... ....
....|..|G#1 .F.4 ....|G#2 ...B ....|D#5 ...D ....
....|..|--- .... ....|--- .... ....|--- .... ....
....|..|--- .... ....|G#3 .... ....|--- .... ....
....|..|--- .... ....|--- .... ....|--- ...6 ....
....|..|R-- .... ....|G#2 ...8 ....|--- .... ....
....|..|--- .... ....|--- .... ....|--- .... ....
....|..|--- .... ....|G#3 .... ....|E-5 .F3D ....
....|..|--- .... ....|--- .... ....|--- .... ....
....|..|C-4 8..F ....|B-1 ...F ....|--- .... ....
....|..|--- .... ....|--- .... ....|D#5 .F.6 ....
....|..|R-- .... ....|--- .... ....|--- .... ....
....|..|--- .... ....|--- .... ....|--- .... ....
....|..|--- .... ....|B-2 .... ....|G-5 ...D ....
....|..|--- .... ....|--- .... ....|--- .... ....
....|..|C-4 ...B ....|B-3 .... ....|--- .... ....
....|..|--- .... ....|--- .... ....|--- .... ....
..15|..|C-4 AE.F ....|F#1 .... ....|G#5 .... ....
....|..|F#1 7... ....|--- .... ....|--- .... ....
....|..|--- .... ....|--- .... ....|--- .... ....
....|..|--- .... ....|--- .... ....|G-5 ...6 ....
....|..|C-4 8... ....|F#2 .... ....|--- .... ....
....|..|--- .... ....|--- .... ....|--- .... ....
....|..|R-- .... ....|F#3 .... ....|A#5 ...D ....
....|..|--- .... ....|--- .... ....|--- .... ....
....|..|C-4 A... ....|F#2 ...B ....|--- .... ....
....|..|--- .... ....|--- .... ....|G-5 ...6 ....
....|..|C-4 8..B ....|F#3 .... ....|--- .... ....
....|..|--- .... ....|--- .... ....|--- .... ....
....|..|C-4 A..F ....|F#1 ...F ....|B-5 ...D ....
....|..|F#1 7... ....|--- .... ....|--- .... ....
....|..|--- .... ....|--- .... ....|--- .... ....
....|..|--- .... ....|--- .... ....|--- .... ....
....|..|G#1 .F.4 ....|F#2 .... ....|C#6 .... 31.F
....|..|--- .... ....|--- .... ....|--- .... ....
....|..|--- .... ....|F#3 .... ....|--- .... ....
....|..|--- .... ....|--- .... ....|--- .... ....
....|..|C-4 8..F ....|F#2 ...B ....|B-5 ...8 ....
....|..|--- .... ....|--- .... ....|--- .... ....
....|..|R-- .... ....|F#3 .... ....|--- .... ....
....|..|--- .... ....|--- .... ....|--- .... ....
....|..|C-4 A... ....|G-1 ...F ....|D#6 ...D ....
....|..|--- .... ....|--- .... ....|--- .... ....
....|..|C-4 8... 6.20|--- .... ....|--- .... ....
....|..|--- .... ....|--- .... ....|--- .... ....
....|.8|C-4 9... 6.30|G-2 .... ....|E-6 .... 31.2
....|..|--- .... ....|--- .... ....|--- .... ....
....|.D|C-4 8... ....|G-3 .... ....|--- .... ....
....|..|--- .... ....|--- .... ....|--- .... ....

[Pattern12]
..13|.8|C-4 AE.F ....|D#4 AE.. ....|C-4 8..F ....
....|.D|G#1 7... ....|G#2 7... ....|B-4 6... ....
....|.D|--- .... ....|--- .... ....|--- .... 11.9
....|.D|--- .... ....|--- .... ....|--- .... ....
..4B|.8|B-4 6... ....|B-8 C... ....|G#7 7C.. 11.9
....|.8|--- .... 11.9|--- .... ....|--- .... ....
..4B|..|C-4 A... ....|D#4 A... ....|G#3 GC1. ....
....|..|G#1 7... ....|G#1 7... ....|--- .... ....
..4B|..|C-4 8... ....|B-4 FF1. ....|A#7 7E.. 315C
....|..|--- .... ....|--- .... ....|--- .... ....
..38|..|B-4 D..D ....|C-8 7C.. 11.3|G#7 .... 11.9
....|..|--- .... ....|--- .... ....|--- .... ....
..13|..|C-4 A..F ....|B-7 FF1. ....|G#3 GE1C ....
....|..|G#1 7... ....|--- .... ....|--- .... ....
..25|..|C-4 A... ....|D#4 AC.. ....|F#7 7E.. 315A
....|..|G#1 7... ....|G#2 7... ....|--- .... ....
..13|..|--- .... ....|G#1 .... ....|F-7 .E.. 11.9
....|..|--- .... ....|--- .... ....|--- .... ....
..13|..|C-4 A... ....|D#4 A... ....|G#3 GE1F ....
....|..|G#1 7... ....|G#1 7... ....|--- .... ....
..4B|..|--- .... ....|B-8 D... ....|D#7 7C.. 315A
....|..|--- .... ....|G#1 7... ....|--- .... ....
....|..|C-4 A... ....|B-8 D..B ....|C#7 .... 11.9
....|..|G#1 7... ....|G#1 7... ....|--- .... ....
..13|..|C-4 8... ....|B-4 FF1F ....|G#4 GE1. ....
....|..|--- .... ....|--- .... ....|--- .... ....
..13|..|C-4 A... ....|B-2 7..B ....|B-6 7E.. 31.3
....|..|G#1 7... ....|--- .... ....|--- .... ....
..20|..|B-1 .... ....|B-8 DC.F ....|A#6 .... 11.9
....|..|--- .... ....|B-1 7... ....|--- .... ....
..20|..|C-4 8..B ....|D#4 A... ....|G#4 GE1C ....
....|..|--- .... ....|B-1 7... ....|--- .... ....
..13|..|C-4 A..F ....|D#4 A... ....|G-6 7E.. 314F
....|..|G#1 7... ....|G#2 7... ....|--- .... ....
....|..|--- .... ....|--- .... ....|F#6 .... 11.9
....|..|--- .... ....|--- .... ....|--- .... ....
..4B|.8|B-4 6..D ....|B-8 C... ....|A#6 .C.. 11.9
....|.8|--- .... ....|--- .... ....|R-- .... ....
....|..|C-4 A..F ....|D#4 A... ....|B-6 .... 11.9
....|..|G#1 7... ....|G#2 7..B ....|R-- .... ....
..13|..|C-4 8... ....|B-4 FF1F ....|G#3 GE1F ....
....|..|--- .... ....|--- .... ....|--- .... ....
..38|..|B-4 D..D ....|G-7 7C.. 21.1|D#7 7C.. 11.9
....|..|--- .... ....|--- .... ....|R-- .... ....
..13|..|C-4 A..F ....|B-7 FF1. ....|G#7 .E.. 11.9
....|..|G#1 7... ....|--- .... ....|R-- .... ....
..26|..|C-4 A... ....|D#4 AC.. ....|G#3 GC1C ....
....|..|G#1 7... ....|G#2 7... ....|--- .... ....
..13|..|--- .... ....|G#3 .... ....|D#7 7E.. 11.9
....|..|--- .... ....|--- .... ....|--- .... ....
....|..|C-4 A... ....|D#4 A... ....|F-6 .... 11.9
....|..|G#1 7... ....|--- .... ....|--- .... ....
..4B|..|--- .... ....|B-8 D... ....|B-7 .C.. 11.9
....|..|--- .... ....|--- .... ....|R-- .... ....
..13|..|C-4 A... ....|B-8 ...B ....|B-3 GE1F ....
....|..|G#1 7... ....|--- .... ....|--- .... ....
..13|..|C-4 8... ....|B-4 FF1F ....|E-6 7E.. 3150
....|..|--- .... ....|--- .... ....|--- .... ....
....|..|C-4 A... ....|B-2 7..B ....|D#6 .... 11.9
....|..|G#1 7... ....|--- .... ....|--- .... ....
..20|..|B-1 .... ....|B-8 DC.F ....|B-3 GE1D ....
....|..|--- .... ....|B-1 7... ....|--- .... ....
..20|..|C-4 8..B ....|D#4 A... ....|C#8 7C.. 11.9
....|..|--- .... ....|B-1 7... ....|R-- .... ....

[Pattern13]
..14|.8|C-4 A..F ....|D#4 AE.. ....|C-4 8..F ....
....|.D|G-1 7... ....|G-2 7... ....|G-4 6... ....
....|.D|--- .... ....|--- .... ....|--- .... 11.9
....|.D|--- .... ....|--- .... ....|--- .... ....
..50|.8|G-4 6... ....|A#8 C... ....|B-8 7C.. 11.9
....|.8|--- .... 11.9|--- .... ....|--- .... ....
..50|..|C-4 A... ....|D#4 A... ....|G-3 GC1. ....
....|..|G-1 7... ....|G-1 7... ....|--- .... ....
..50|..|C-4 8... ....|G-4 FF1. ....|G#7 7E.. 3161
....|..|--- .... ....|--- .... ....|--- .... ....
..38|..|G-4 D..D ....|C-8 7C.. 11.3|F#8 .... 11.9
....|..|--- .... ....|--- .... ....|--- .... ....
..14|..|C-4 A..F ....|A#7 FF1. ....|G-3 GE1C ....
....|..|G-1 7... ....|--- .... ....|--- .... ....
..28|..|C-4 A... ....|D#4 AC.. ....|F#7 7E.. 315F
....|..|G-1 7... ....|G-2 7... ....|--- .... ....
..14|..|--- .... ....|G#1 .E.. ....|G#7 .... 11.9
....|..|--- .... ....|--- .... ....|--- .... ....
..14|..|C-4 A... ....|D#4 A... ....|G-3 GE1F ....
....|..|G-1 7... ....|G-1 7... ....|--- .... ....
..50|..|--- .... ....|A#8 DC.. ....|D#7 7C.. 3151
....|..|--- .... ....|G-1 7... ....|--- .... ....
....|..|C-4 A... ....|A#8 D..B ....|C#7 .... 11.9
....|..|G-1 7... ....|G-1 7... ....|--- .... ....
..14|..|C-4 8... ....|G-4 FF1F ....|G-4 GE1. ....
....|..|--- .... ....|--- .... ....|--- .... ....
..14|..|C-4 A... ....|A#2 7..B ....|B-6 7E.. 31.3
....|..|G-1 7... ....|--- .... ....|--- .... ....
..21|..|A#1 .... ....|A#8 DC.F ....|A#6 .... 11.9
....|..|--- .... ....|A#1 7... ....|--- .... ....
..21|..|C-4 8..B ....|D#4 A... ....|G-4 GE1C ....
....|..|--- .... ....|A#1 7... ....|--- .... ....
..14|..|C-4 A..F ....|D#4 A... ....|G-6 7E.. 314F
....|..|G-1 7... ....|G-2 7... ....|--- .... ....
....|..|--- .... ....|--- .... ....|F#6 .... 11.9
....|..|--- .... ....|--- .... ....|--- .... ....
....|.8|A#4 6..D ....|A#8 C... ....|A#6 .... 11.9
....|.8|--- .... ....|--- .... ....|R-- .... ....
....|..|C-4 A..F ....|D#4 A... ....|B-6 .... 11.9
....|..|G-1 7... ....|G-2 7..B ....|R-- .... ....
..14|..|C-4 8... ....|A#4 FF1F ....|G-3 GE1F ....
....|..|--- .... ....|--- .... ....|--- .... ....
..38|..|A#4 D..D ....|G-7 7C.. 21.1|D#7 7C.. 11.9
....|..|--- .... ....|--- .... ....|R-- .... ....
..14|..|C-4 A..F ....|A#7 FF1. ....|G#7 .E.. 11.9
....|..|G-1 7... ....|--- .... ....|R-- .... ....
..28|..|C-4 A... ....|D#4 AC.. ....|G-3 GC1C ....
....|..|G-1 7... ....|G-2 7... ....|--- .... ....
..14|..|--- .... ....|G-3 .... ....|D#7 7E.. 11.9
....|..|--- .... ....|--- .... ....|--- .... ....
....|..|C-4 A... ....|D#4 A... ....|F-6 .... 11.9
....|..|G-1 7... ....|--- .... ....|--- .... ....
....|..|--- .... ....|A#8 D... ....|B-7 .... 11.9
....|..|--- .... ....|--- .... ....|R-- .... ....
..14|..|C-4 A... ....|A#8 ...B ....|A#3 GE1F ....
....|..|G-1 7... ....|--- .... ....|--- .... ....
..14|..|C-4 8... ....|A#4 FF1F ....|E-6 7E.. 3150
....|..|--- .... ....|--- .... ....|--- .... ....
....|..|C-4 A... ....|A#2 7..B ....|D#6 .... 11.9
....|..|G-1 7... ....|--- .... ....|--- .... ....
..21|..|A#1 .... ....|A#8 DC.F ....|A#3 GE1D ....
....|..|--- .... ....|A#1 7... ....|--- .... ....
..21|..|C-4 8..B ....|D#4 A... ....|C#8 7C.. 11.9
....|..|--- .... ....|A#1 7... ....|R-- .... ....

[Pattern14]
..14|.8|C-4 A..F ....|D#4 AE.. ....|C-4 8..F ....
....|.D|G-1 7... ....|G-2 7... ....|G-4 6... ....
....|.D|--- .... ....|--- .... ....|--- .... 11.9
....|.D|--- .... ....|--- .... ....|--- .... ....
..50|.8|G-4 6... ....|A#8 C... ....|B-8 7C.. 11.9
....|.8|--- .... 11.9|--- .... ....|--- .... ....
..50|..|C-4 A... ....|D#4 A... ....|G-3 GC1. ....
....|..|G-1 7... ....|G-1 7... ....|--- .... ....
..50|..|C-4 8... ....|G-4 FF1. ....|G#7 7E.. 3161
....|..|--- .... ....|--- .... ....|--- .... ....
..38|..|G-4 D..D ....|C-8 7C.. 11.3|F#8 .... 11.9
....|..|--- .... ....|--- .... ....|--- .... ....
..14|..|C-4 A..F ....|A#7 FF1. ....|G-3 GE1C ....
....|..|G-1 7... ....|--- .... ....|--- .... ....
..28|..|C-4 A... ....|D#4 AE.. ....|F#7 7E.. 315F
....|..|G-1 7... ....|G-2 7... ....|--- .... ....
..14|..|--- .... ....|G#1 .E.. ....|G#7 .... 11.9
....|..|--- .... ....|--- .... ....|--- .... ....
..14|..|C-4 A... ....|D#4 A... ....|G-3 GE1F ....
....|..|G-1 7... ....|G-1 7... ....|--- .... ....
..50|..|--- .... ....|A#8 D... ....|D#7 7C.. 3151
....|..|--- .... ....|G-1 7... ....|--- .... ....
....|..|C-4 A... ....|A#8 D..B ....|C#7 .... 11.9
....|..|G-1 7... ....|G-1 7... ....|--- .... ....
..14|..|C-4 8... ....|G-4 FF1F ....|G-4 GE1. ....
....|..|--- .... ....|--- .... ....|--- .... ....
..14|..|C-4 A... ....|A#2 7..B ....|B-6 7E.. 31.3
....|..|G-1 7... ....|--- .... ....|--- .... ....
..21|..|A#1 .... ....|A#8 DC.F ....|A#6 .... 11.9
....|..|--- .... ....|A#1 7... ....|--- .... ....
..21|..|C-4 8..B ....|D#4 A... ....|G-4 GE1C ....
....|..|--- .... ....|A#1 7... ....|--- .... ....
..14|..|C-4 AF.F ....|D#4 AF.. ....|G-6 7E.. 314F
....|..|G-1 7..A ....|G-2 7..A ....|R-- .... ....
....|..|C-4 A..F ....|--- .... ....|F#6 .... 11.9
....|..|G-1 7..A ....|--- .... ....|R-- .... ....
....|.8|A#4 6..D ....|A#8 C..F ....|A#6 .... 11.9
....|.8|R-- .... ....|--- .... ....|R-- .... ....
....|..|C-4 A..F ....|D#4 A... ....|B-6 .... 11.9
....|..|G-1 7..A ....|G-2 7..B ....|R-- .... ....
..14|..|C-4 8..F ....|A#4 FF1F ....|G-3 GE1F ....
....|..|R-- .... ....|--- .... ....|--- .... ....
..38|..|A#4 D..D ....|G-7 7C.. 21.1|D#7 7C.. 11.9
....|..|--- .... ....|R-- .... ....|R-- .... ....
....|..|C-4 A..F ....|A#7 FF1. ....|G#7 .... 11.9
....|..|G-1 7..A ....|--- .... ....|R-- .... ....
..28|..|C-4 A..F ....|D#4 AF.. ....|G-3 GC1C ....
....|..|G-1 7..A ....|G-2 7..A ....|--- .... ....
..14|..|--- .... ....|G-3 .... ....|D#7 7E.. 11.9
....|..|--- .... ....|--- .... ....|R-- .... ....
....|..|C-4 A..F ....|D#4 A... ....|F-6 .... 11.9
....|..|G-1 7..A ....|--- .... ....|R-- .... ....
..50|..|--- .... ....|A#8 D..F ....|B-7 .C.. 11.9
....|..|--- .... ....|--- .... ....|R-- .... ....
..14|..|C-4 A..F ....|A#8 ...B ....|A#3 GE1F ....
....|..|G-1 7..A ....|--- .... ....|--- .... ....
..14|..|C-4 8..F ....|A#4 FF1F ....|E-6 7E.. 3150
....|..|--- .... ....|--- .... ....|R-- .... ....
....|..|C-4 A... ....|A#2 7..B ....|D#6 .... 11.9
....|..|G-1 7..A ....|--- .... ....|R-- .... ....
..21|..|A#1 .... ....|A#8 DF.F ....|A#3 GE1D ....
....|..|--- .... ....|A#1 7..A ....|--- .... ....
..21|..|C-4 8..B ....|D#4 A..F ....|C#8 7C.. 11.9
....|..|--- .... ....|A#1 7..A ....|R-- .... ....

[Pattern15]
..21|.8|A#1 7E.. ....|A#1 7F1F ....|C-4 8F.F ....
....|.D|--- .... ....|--- .... ....|A#4 6... ....
....|.D|--- .... ....|--- .... ....|--- .... ....
....|.D|--- .... ....|--- .... ....|--- .... ....
....|..|--- .... ....|--- ...6 ....|R-- .... ....
....|..|--- .... ....|--- .... ....|--- .... ....
....|.D|--- .... ....|A#1 ...D ....|A#4 ...B ....
....|.D|--- .... ....|--- .... ....|--- .... ....
....|.D|--- .... ....|--- .... ....|--- .... ....
....|.D|--- .... ....|--- .... ....|--- .... ....
....|..|--- .... ....|--- ...6 ....|R-- .... ....
....|..|--- .... ....|--- .... ....|--- .... ....
....|.D|--- .... ....|A#1 ...F ....|A#4 ...8 ....
....|.D|--- .... ....|--- .... ....|--- .... ....
....|.D|--- .... ....|--- .... ....|--- .... ....
....|.D|--- .... ....|--- .... ....|--- .... ....
..11|..|A#2 .E.. ....|--- ...6 ....|R-- .... ....
....|..|--- .... ....|--- .... ....|--- .... ....
....|..|--- .... ....|A#1 ...D ....|--- .... ....
....|..|--- .... ....|--- .... ....|--- .... ....
..21|..|A#1 .E.. ....|--- .... ....|A#7 3... ....
....|..|--- .... ....|--- .... ....|--- .... ....
....|..|--- .... ....|--- ...6 ....|--- ...3 ....
....|..|--- .... ....|--- .... ....|--- .... ....
....|..|--- .... ....|A#2 ...F ....|--- .... ....
....|..|--- .... ....|--- .... ....|--- .... ....
....|..|--- .... ....|--- .... ....|A#7 ...6 ....
....|..|--- .... ....|--- .... ....|--- .... ....
....|..|--- .... ....|--- ...6 ....|--- ...2 ....
....|..|--- .... ....|--- .... ....|--- .... ....
....|..|--- .... ....|A#2 ...B ....|--- .... ....
....|..|--- .... ....|--- .... ....|--- .... ....
....|..|--- .... ....|--- .... ....|R-- .... ....
....|..|--- .... ....|--- .... ....|--- .... ....
....|..|--- .... ....|--- ...6 ....|--- .... ....
....|..|--- .... ....|--- .... ....|--- .... ....
....|.8|--- .... ....|A#1 ...F ....|--- .... ....
....|.8|--- .... ....|--- .... ....|--- .... ....
....|..|--- .... ....|--- .... ....|--- .... ....
....|..|--- .... ....|--- .... ....|--- .... ....
..11|..|A#2 .E.. ....|--- ...6 ....|--- .... ....
....|..|--- .... ....|--- .... ....|--- .... ....
....|..|--- .... ....|A#1 ...B ....|--- .... ....
....|..|--- .... ....|--- .... ....|--- .... ....
..21|..|A#1 .E.. ....|--- .... ....|--- .... ....
....|..|--- .... ....|--- .... ....|--- .... ....
....|..|--- .... ....|--- ...6 ....|--- .... ....
....|..|--- .... ....|--- .... ....|--- .... ....
....|..|--- .... ....|A#2 ...F ....|A#7 ...8 ....
....|..|--- .... ....|--- .... ....|--- .... ....
....|..|--- .... ....|--- .... ....|--- ...3 ....
....|..|--- .... ....|--- .... ....|--- .... ....
....|..|--- .... ....|--- ...6 ....|--- .... ....
....|..|--- .... ....|--- .... ....|--- .... ....
....|..|--- .... ....|A#2 ...B ....|A#7 ...6 ....
....|..|--- .... ....|--- .... ....|--- .... ....
....|..|--- .... ....|--- .... ....|--- ...2 ....
....|..|--- .... ....|--- .... ....|--- .... ....
....|..|--- .... ....|--- ...6 ....|--- .... ....
....|..|--- .... ....|--- .... ....|--- .... ....
....|..|--- .... ....|A#1 ...F ....|R-- .... ....
....|..|--- .... ....|--- .... ....|--- .... ....
....|..|--- .... ....|--- .... ....|--- .... ....
....|..|--- .... ....|--- .... ....|--- .... ....

[Pattern16]
..21|..|A#1 7E.. ....|A#1 7F1F ....|R-- .... ....
....|..|--- .... ....|--- .... ....|--- .... ....
....|..|--- .... ....|--- .... ....|--- .... ....
....|..|--- .... ....|--- .... ....|--- .... ....
....|..|--- .... ....|--- ...6 ....|--- .... ....
....|..|--- .... ....|--- .... ....|--- .... ....
....|..|--- .... ....|A#1 ...D ....|--- .... ....
....|..|--- .... ....|--- .... ....|--- .... ....
....|..|--- .... ....|--- .... ....|--- .... ....
....|..|--- .... ....|--- .... ....|--- .... ....
....|..|--- .... ....|--- ...6 ....|--- .... ....
....|..|--- .... ....|--- .... ....|--- .... ....
....|..|--- .... ....|A#1 ...F ....|--- .... ....
....|..|--- .... ....|--- .... ....|--- .... ....
....|..|--- .... ....|--- .... ....|--- .... ....
....|..|--- .... ....|--- .... ....|--- .... ....
..11|..|A#2 .E.. ....|--- ...6 ....|--- .... ....
....|..|--- .... ....|--- .... ....|--- .... ....
....|..|--- .... ....|A#1 ...D ....|--- .... ....
....|..|--- .... ....|--- .... ....|--- .... ....
..21|..|A#1 .E.. ....|--- .... ....|A#7 3F.8 ....
....|..|--- .... ....|--- .... ....|--- .... ....
....|..|--- .... ....|--- ...6 ....|--- ...3 ....
....|..|--- .... ....|--- .... ....|--- .... ....
....|..|--- .... ....|A#2 ...F ....|--- .... ....
....|..|--- .... ....|--- .... ....|--- .... ....
....|..|--- .... ....|--- .... ....|A#7 ...6 ....
....|..|--- .... ....|--- .... ....|--- .... ....
....|..|--- .... ....|--- ...6 ....|--- ...2 ....
....|..|--- .... ....|--- .... ....|--- .... ....
....|..|--- .... ....|A#2 ...B ....|--- .... ....
....|..|--- .... ....|--- .... ....|--- .... ....
....|..|--- .... ....|--- .... ....|R-- .... ....
....|..|--- .... ....|--- .... ....|--- .... ....
....|..|--- .... ....|--- ...6 ....|--- .... ....
....|..|--- .... ....|--- .... ....|--- .... ....
....|..|--- .... ....|A#1 ...F ....|--- .... ....
....|..|--- .... ....|--- .... ....|--- .... ....
....|..|--- .... ....|--- .... ....|--- .... ....
....|..|--- .... ....|--- .... ....|--- .... ....
..11|..|A#2 .E.. ....|--- ...6 ....|--- .... ....
....|..|--- .... ....|--- .... ....|--- .... ....
....|..|--- .... ....|A#1 ...B ....|--- .... ....
....|..|--- .... ....|--- .... ....|--- .... ....
..21|..|A#1 .E.. ....|--- .... ....|--- .... ....
....|..|--- .... ....|--- .... ....|--- .... ....
....|..|--- .... ....|--- ...6 ....|--- .... ....
....|..|--- .... ....|--- .... ....|--- .... ....
....|..|--- .... ....|A#2 ...F ....|A#7 ...8 ....
....|..|--- .... ....|--- .... ....|--- .... ....
....|..|--- .... ....|--- .... ....|--- ...3 ....
....|..|--- .... ....|--- .... ....|--- .... ....
....|..|--- .... ....|--- ...6 ....|--- .... ....
....|..|--- .... ....|--- .... ....|--- .... ....
....|..|--- .... ....|A#2 ...B ....|A#7 ...6 ....
....|..|--- .... ....|--- .... ....|--- .... ....
..11|..|A#2 .E.. ....|--- .... ....|--- ...2 ....
....|..|R-- .... ....|--- .... ....|--- .... ....
....|..|A#2 .... ....|--- ...6 ....|--- .... ....
....|..|R-- .... ....|--- .... ....|--- .... ....
....|..|A#2 .... ....|A#1 ...F ....|R-- .... ....
....|..|R-- .... ....|--- .... ....|--- .... ....
....|..|A#2 .... ....|--- .... ....|--- .... ....
....|..|R-- .... ....|--- .... ....|--- .... ....

[Pattern17]
..11|..|A#2 7E.. ....|A#1 .... ....|R-- .... ....
....|..|R-- .... ....|--- .... ....|--- .... ....
....|..|A#2 .... ....|--- .... ....|--- .... ....
....|..|R-- .... ....|--- .... ....|--- .... ....
....|.8|A#2 .... ....|--- ...6 ....|A#7 6..D ....
....|.8|R-- .... ....|--- .... ....|--- .... ....
....|..|A#2 .... ....|A#1 ...D ....|R-- .... ....
....|..|R-- .... ....|--- .... ....|--- .... ....
....|..|A#2 .... ....|--- .... ....|--- .... ....
....|..|R-- .... ....|--- .... ....|--- .... ....
....|.8|A#2 .... ....|--- ...6 ....|A#7 ...B ....
....|.8|R-- .... ....|--- .... ....|--- .... ....
....|..|A#2 .... ....|A#1 ...F ....|R-- .... ....
....|..|R-- .... ....|--- .... ....|--- .... ....
....|..|A#2 .... ....|--- .... ....|--- .... ....
....|..|R-- .... ....|--- .... ....|--- .... ....
..11|..|A#2 .C.. ....|--- ...6 ....|--- .... ....
....|..|R-- .... ....|--- .... ....|--- .... ....
....|..|A#3 .... ....|A#1 ...D ....|--- .... ....
....|..|R-- .... ....|--- .... ....|--- .... ....
..11|..|A#1 .E.. ....|--- .... ....|A#7 3..8 ....
....|..|R-- .... ....|--- .... ....|--- .... ....
....|..|A#1 .... ....|--- ...6 ....|--- ...3 ....
....|..|R-- .... ....|--- .... ....|--- .... ....
....|..|A#1 .... ....|A#2 ...F ....|--- .... ....
....|..|R-- .... ....|--- .... ....|--- .... ....
....|..|A#1 .... ....|--- .... ....|A#7 ...6 ....
....|..|R-- .... ....|--- .... ....|--- .... ....
....|..|A#1 .... ....|--- ...6 ....|--- ...2 ....
....|..|R-- .... ....|--- .... ....|--- .... ....
....|..|A#1 .... ....|A#2 ...B ....|--- .... ....
....|..|R-- .... ....|--- .... ....|--- .... ....
....|..|A#1 .... ....|--- .... ....|R-- .... ....
....|..|R-- .... ....|--- .... ....|--- .... ....
....|..|A#1 .... ....|--- ...6 ....|--- .... ....
....|..|R-- .... ....|--- .... ....|--- .... ....
....|.8|A#1 .... ....|A#1 ...F ....|A#7 6..D ....
....|.8|R-- .... ....|--- .... ....|--- .... ....
....|..|A#1 .... ....|--- .... ....|R-- .... ....
....|..|R-- .... ....|--- .... ....|--- .... ....
..11|..|A#2 .C.. ....|--- ...6 ....|--- .... ....
....|..|R-- .... ....|--- .... ....|--- .... ....
....|.8|A#3 .... ....|A#1 ...B ....|A#7 ...B ....
....|.8|R-- .... ....|--- .... ....|--- .... ....
..11|..|A#2 .E.. ....|--- .... ....|R-- .... ....
....|..|R-- .... ....|--- .... ....|--- .... ....
....|..|A#2 .... ....|--- ...6 ....|--- .... ....
....|..|R-- .... ....|--- .... ....|--- .... ....
....|..|A#2 .... ....|A#2 ...F ....|A#7 3..9 ....
....|..|R-- .... ....|R-- .... ....|--- .... ....
....|..|A#2 .... ....|A#2 .... ....|--- ...4 ....
....|..|R-- .... ....|R-- .... ....|--- .... ....
....|..|A#2 .... ....|A#2 ...6 ....|--- .... ....
....|..|R-- .... ....|R-- .... ....|--- .... ....
....|..|A#2 .... ....|A#2 ...B ....|A#7 ...7 ....
....|..|R-- .... ....|R-- .... ....|--- .... ....
....|..|A#2 .... ....|A#2 .... ....|--- ...2 ....
....|..|R-- .... ....|R-- .... ....|--- .... ....
....|..|A#2 .... ....|A#2 ...6 ....|--- .... ....
....|..|R-- .... ....|R-- .... ....|--- .... ....
....|..|A#2 .... ....|A#1 ...F ....|R-- .... ....
....|..|R-- .... ....|R-- .... ....|--- .... ....
....|..|A#2 .... ....|A#1 .... ....|--- .... ....
....|..|R-- .... ....|R-- .... ....|--- .... ....

[Pattern18]
..11|..|A#2 7E.. ....|A#1 .... ....|C-4 AE.F ....
....|..|R-- .... ....|--- .... ....|A#1 7... ....
....|..|A#2 .... ....|A#1 .... ....|--- .... ....
....|..|R-- .... ....|R-- .... ....|--- .... ....
....|.8|A#2 .... ....|A#1 ...6 ....|A#7 6F.D ....
....|.8|R-- .... ....|R-- .... ....|--- .... ....
....|..|A#2 .... ....|A#1 ...D ....|C-4 A... ....
....|..|R-- .... ....|--- .... ....|--- .... ....
....|..|A#2 .... ....|A#1 .... ....|--- .... ....
....|..|R-- .... ....|R-- .... ....|--- .... ....
....|.8|A#2 .... ....|A#1 ...6 ....|A#7 6..B ....
....|.8|R-- .... ....|R-- .... ....|--- .... ....
..11|..|A#2 .... ....|A#1 ...F ....|C-4 AE.F ....
....|..|R-- .... ....|--- .... ....|A#1 7... ....
....|..|A#2 .... ....|A#1 .... ....|--- .... ....
....|..|R-- .... ....|R-- .... ....|--- .... ....
..11|..|A#2 .C.. ....|A#1 ...6 ....|R-- .... ....
....|..|R-- .... ....|R-- .... ....|--- .... ....
....|..|A#3 .... ....|A#1 ...D ....|C-4 AF.D ....
....|..|R-- .... ....|--- .... ....|--- .... ....
..11|..|A#1 .E.. ....|A#1 .... ....|A#7 3..8 ....
....|..|R-- .... ....|R-- .... ....|--- .... ....
....|..|A#1 .... ....|A#1 ...6 ....|--- ...3 ....
....|..|R-- .... ....|R-- .... ....|--- .... ....
....|..|A#1 .... ....|A#2 ...F ....|--- .... ....
....|..|R-- .... ....|--- .... ....|--- .... ....
....|..|A#1 .... ....|A#2 .... ....|A#7 ...6 ....
....|..|R-- .... ....|R-- .... ....|--- .... ....
....|..|A#1 .... ....|A#2 ...6 ....|--- ...2 ....
....|..|R-- .... ....|R-- .... ....|--- .... ....
....|..|A#1 .... ....|A#2 ...B ....|--- .... ....
....|..|R-- .... ....|--- .... ....|--- .... ....
..11|..|A#1 .... ....|A#2 .... ....|C-4 AE.F ....
....|..|R-- .... ....|R-- .... ....|A#2 7... ....
....|..|A#1 .... ....|A#2 ...6 ....|--- .... ....
....|..|R-- .... ....|R-- .... ....|--- .... ....
....|.8|A#1 .... ....|A#1 ...F ....|A#7 6F.D ....
....|.8|R-- .... ....|--- .... ....|--- .... ....
....|..|A#1 .... ....|A#1 .... ....|C-4 A... ....
....|..|R-- .... ....|R-- .... ....|--- .... ....
..11|..|A#2 .C.. ....|A#1 ...6 ....|--- .... ....
....|..|R-- .... ....|R-- .... ....|--- .... ....
....|.8|A#3 .... ....|A#1 ...B ....|A#7 6..B ....
....|.8|R-- .... ....|--- .... ....|--- .... ....
..11|..|A#2 .E.. ....|A#1 .... ....|C-4 AE.F ....
....|..|R-- .... ....|R-- .... ....|A#2 7... ....
....|..|A#2 .... ....|A#1 ...6 ....|--- .... ....
....|..|R-- .... ....|R-- .... ....|--- .... ....
....|..|A#2 .... ....|A#2 ...F ....|A#7 3F.9 ....
....|..|R-- .... ....|--- .... ....|--- .... ....
..11|..|A#2 .... ....|A#2 .... ....|C-4 AE.F ....
....|..|R-- .... ....|R-- .... ....|A#2 7... ....
....|..|A#2 .... ....|A#2 ...6 ....|A#1 .... ....
....|..|R-- .... ....|R-- .... ....|--- .... ....
....|..|A#2 .... ....|A#2 ...B ....|A#7 3F.7 ....
....|..|R-- .... ....|--- .... ....|--- .... ....
....|..|A#2 .... ....|A#2 .... ....|--- ...2 ....
....|..|R-- .... ....|R-- .... ....|--- .... ....
....|..|A#2 .... ....|A#2 ...6 ....|C-4 8..F ....
....|..|R-- .... ....|R-- .... ....|--- .... ....
..11|..|A#2 .... ....|A#1 ...F ....|C-4 AE.. ....
....|..|R-- .... ....|R-- .... ....|A#1 7... ....
....|..|A#2 .... ....|A#1 .... ....|C-4 8..D ....
....|..|R-- .... ....|R-- .... ....|A#1 7... ....

[Pattern19]
....|..|D#4 A..F ....|A#1 .... ....|C-4 A..F ....
....|..|A#2 7... ....|--- .... ....|A#1 7... ....
....|..|A#2 A... ....|A#1 .... ....|C-4 A... ....
....|..|A#2 7... ....|R-- .... ....|A#1 7... ....
....|.8|G#4 .... 21.9|A#1 ...6 ....|A#7 6F.D ....
....|.8|R-- .... ....|R-- .... ....|--- .... ....
..11|..|D#4 A... ....|A#1 ...D ....|C-4 AE.F ....
....|..|A#2 7... ....|--- .... ....|A#1 .... ....
....|..|A#4 .... 21.9|A#3 F..F ....|C-4 8... ....
....|..|R-- .... ....|--- .... ....|--- .... ....
....|.8|A#2 .... ....|A#1 7..6 ....|A#7 6..B ....
....|.8|R-- .... ....|R-- .... ....|--- .... ....
..11|..|D#4 A... ....|A#1 ...F ....|C-4 AE.F ....
....|..|B-4 7... 21.9|--- .... ....|A#1 7... ....
....|..|D#4 A... ....|A#1 .... ....|C-4 A... ....
....|..|C-5 7... 21.9|R-- .... ....|A#1 7... ....
....|..|A#1 .... ....|A#1 ...6 ....|C-4 A..B ....
..11|..|R-- .... ....|R-- .... ....|A#1 7E.. ....
....|..|D#4 A... ....|A#1 ...D ....|C-4 A..F ....
....|..|A#3 7... ....|--- .... ....|A#1 7... ....
....|..|A#1 .... ....|A#1 .... ....|A#7 3F.8 ....
....|..|R-- .... ....|R-- .... ....|--- .... ....
..11|..|D#4 A... ....|A#1 ...6 ....|C-4 AE.F ....
....|..|A#1 7... ....|R-- .... ....|A#1 7... ....
....|..|A#1 .... ....|A#3 F..F ....|C-4 8... ....
....|..|R-- .... ....|--- .... ....|--- .... ....
....|..|C#5 .... 21.9|A#2 7... ....|A#7 3F.6 ....
....|..|R-- .... ....|R-- .... ....|--- .... ....
..11|..|D#4 A... ....|A#2 ...6 ....|C-4 8E.F ....
....|..|A#1 7... ....|R-- .... ....|A#1 7... ....
....|..|F#5 .... 21.9|A#2 ...B ....|C-4 A... ....
....|..|R-- .... ....|--- .... ....|A#1 7... ....
..11|..|D#4 A... ....|A#2 .... ....|C-4 AE.. ....
....|..|A#1 7... ....|R-- .... ....|A#2 7... ....
....|..|D#4 A... ....|A#2 ...6 ....|C-4 A... ....
....|..|A#1 7... ....|R-- .... ....|A#2 7... ....
....|.8|A#1 .... ....|A#1 ...F ....|A#7 6F.D ....
....|.8|R-- .... ....|--- .... ....|--- .... ....
..11|..|D#4 A... ....|A#1 .... ....|C-4 AE.F ....
....|..|A#1 7... ....|R-- .... ....|A#1 7... ....
..11|..|A#2 .C.. ....|A#3 F... ....|C-4 8... ....
....|..|R-- .... ....|--- .... ....|--- .... ....
....|.8|A#3 .... ....|A#1 7..B ....|A#7 6..B ....
....|.8|R-- .... ....|--- .... ....|--- .... ....
..11|..|D#4 A... ....|A#1 .... ....|C-4 AE.F ....
....|..|A#2 7... ....|R-- .... ....|A#2 7... ....
....|..|D#4 A... ....|A#1 ...6 ....|C-4 A... ....
....|..|A#2 7... ....|R-- .... ....|A#2 7... ....
....|..|A#2 .... ....|A#2 ...F ....|A#7 3F.9 ....
....|..|R-- .... ....|--- .... ....|--- .... ....
..11|..|D#4 A... ....|A#2 .... ....|C-4 AE.F ....
....|..|A#2 7... ....|R-- .... ....|A#2 7... ....
....|..|A#2 .... ....|A#3 F... ....|C-4 8... ....
....|..|R-- .... ....|R-- .... ....|--- .... ....
....|..|A#2 .... ....|A#2 7..B ....|A#7 3F.7 ....
....|..|R-- .... ....|--- .... ....|--- .... ....
....|..|D#4 A... ....|A#2 .... ....|C-4 9..E ....
..11|..|A#2 7... ....|R-- .... ....|A#1 7E.. ....
....|..|A#2 .... ....|A#3 F..F ....|C-4 8..F ....
....|..|R-- .... ....|--- .... ....|--- .... ....
..11|..|D#4 A... ....|A#1 7... ....|C-4 AE.. ....
....|..|A#2 7... ....|R-- .... ....|A#1 7... ....
....|..|A#2 .... ....|A#1 .... ....|C-4 8..D ....
....|..|R-- .... ....|R-- .... ....|A#1 7... ....

[Pattern20]
..10|.D|D#4 A... ....|B-3 6F1. ....|C-4 AE.F ....
..10|.D|B-2 7... ....|B-3 7E.. ....|B-1 7... ....
....|.D|A#2 A... ....|B-2 6F1. ....|C-4 A... ....
..10|.D|B-2 7... ....|B-3 7E.. ....|B-1 7... ....
....|.8|G#5 .... 21.9|B-3 .F1B ....|B-7 6F.E ....
..10|.8|B-1 .... ....|B-1 .E.. ....|--- .... ....
..10|..|D#4 A... ....|B-2 .F1F ....|C-4 AE.F ....
..10|..|B-2 7... ....|B-1 .E.. ....|B-1 .... ....
....|..|A-5 .... 21.9|B-4 FF1. ....|C-4 8... ....
....|..|B-1 .... ....|--- .... ....|--- .... ....
....|..|B-2 .... ....|B-2 7..6 ....|B-7 D..D ....
..10|..|B-1 .... ....|B-1 .E.. ....|--- .... ....
..10|..|D#4 A... ....|B-2 .F1F ....|C-4 AE.F ....
..10|..|A-5 7... 21.9|B-1 .E.. ....|B-1 7... ....
....|..|D#4 A... ....|B-3 .F1. ....|C-4 A... ....
..10|..|B-5 7... 21.9|B-1 .E.. ....|B-1 7... ....
....|..|B-1 .... ....|B-2 .F16 ....|C-4 A..B ....
..10|..|--- .... ....|B-1 .E.. ....|B-1 7... ....
....|..|D#4 A... ....|B-2 .F1F ....|C-4 A..F ....
..10|..|B-3 7... ....|B-1 .E.. ....|B-1 7... ....
....|..|B-1 .... ....|B-2 .F1. ....|B-7 3F.8 ....
..10|..|--- .... ....|B-1 .E.. ....|--- .... ....
..10|..|D#4 A... ....|B-2 .F16 ....|C-4 AE.F ....
..10|..|B-1 7... ....|B-1 .E.. ....|B-1 7... ....
....|..|C#6 .... 21.9|B-4 FF1F ....|C-4 8... ....
....|..|B-1 .... ....|--- .... ....|--- .... ....
....|..|D#6 .... 21.9|B-3 7... ....|B-7 3F.6 ....
..10|..|B-1 .... ....|B-1 .E.. ....|--- .... ....
..10|..|D#4 A... ....|B-3 .F16 ....|C-4 8E.F ....
..10|..|B-1 7... ....|B-1 .E.. ....|B-1 7... ....
....|..|E-6 .... 21.9|B-3 .F1B ....|C-4 A... ....
..10|..|B-1 .... ....|B-1 .E.. ....|B-1 7... ....
..10|..|D#4 A... ....|B-3 .F1F ....|C-4 AE.. ....
..10|..|B-1 7... ....|B-1 .E.. ....|B-2 7... ....
....|..|D#4 A... ....|B-3 .F16 ....|C-4 A... ....
..10|..|B-1 7... ....|B-1 .E.. ....|B-2 7... ....
....|.8|F-6 .... 21.9|B-2 .F1F ....|B-7 6F.E ....
..10|.8|B-1 .... ....|B-1 .E.. ....|--- .... ....
..10|..|D#4 A... ....|B-2 .F1. ....|C-4 AE.F ....
..10|..|B-1 7... ....|B-1 .E.. ....|B-1 7... ....
....|..|F#6 .... 21.9|B-4 FF1. ....|C-4 8... ....
....|..|B-1 .... ....|--- .... ....|--- .... ....
....|..|B-3 .... ....|B-2 7..B ....|B-7 D..D ....
..10|..|B-1 .... ....|B-1 .E.. ....|--- .... ....
....|..|D#4 A... ....|B-2 .F1. ....|C-4 A..F ....
..10|..|G-6 7... 21.9|B-1 .E.. ....|B-2 7... ....
....|..|D#4 A... ....|B-2 .F16 ....|C-4 A... ....
..10|..|G#6 7... 21.9|B-1 .E.. ....|B-2 7... ....
....|..|B-2 .... ....|B-3 .F1F ....|B-7 3F.9 ....
..10|..|B-1 .... ....|B-1 .E.. ....|--- .... ....
..10|..|D#4 A... ....|B-3 .F1. ....|C-4 AE.F ....
..10|..|B-2 7... ....|B-1 .E.. ....|B-2 7... ....
....|..|--- .... ....|B-4 FF1. ....|C-4 8... ....
..10|..|B-1 .... ....|B-1 7E.. ....|--- .... ....
....|..|B-2 .... ....|B-3 .F1B ....|B-7 3F.7 ....
..10|..|B-1 .... ....|B-1 .E.. ....|--- .... ....
....|..|D#4 A... ....|B-3 .F1. ....|C-4 9..E ....
..10|..|A#6 7... 21.9|B-1 .E.. ....|B-1 7E.. ....
....|..|B-6 .... 21.9|B-4 FF1F ....|C-4 8..F ....
....|..|B-1 .... ....|--- .... ....|--- .... ....
....|..|D#4 A... ....|B-2 7... ....|C-4 A... ....
..10|..|B-2 7... ....|B-1 .E.. ....|B-1 7... ....
....|..|C-7 .... 21.9|B-2 .F1. ....|C-4 8..D ....
..10|..|B-1 .... ....|B-1 .E.. ....|B-1 7... ....

[Pattern21]
....|.D|D#4 A... ....|B-3 6F1. ....|C-4 A..F ....
....|.D|B-2 7... ....|B-1 .... ....|B-1 7... ....
....|.D|D#4 A... ....|B-2 .... ....|C-4 A... ....
..10|..|B-2 7... ....|B-2 7E.. ....|B-1 7... ....
....|.8|G#7 .... 11.9|A#3 6F1. ....|B-7 6F.E ....
..10|.8|B-1 .... ....|B-1 7E.. ....|--- .... ....
..10|..|D#4 A... ....|B-3 .F1. ....|C-4 AE.F ....
..10|..|B-2 7... ....|B-1 .E.. ....|B-1 7... ....
....|..|D#4 8... ....|B-4 FF1. ....|C-4 8... ....
....|..|--- .... ....|--- .... ....|--- .... ....
....|..|D#7 7... 11.9|B-3 7... ....|B-7 D..D ....
..10|..|B-1 .... ....|B-1 .E.. ....|--- .... ....
....|.8|D#4 A... ....|A#4 6F1. ....|C-4 A..F ....
..10|..|D-7 7... 11.9|B-1 7E.. ....|B-1 7... ....
....|..|D#4 A... ....|B-4 .F1. ....|C-4 A... ....
..10|..|C#7 7... 11.9|B-1 .E.. ....|B-1 7... ....
....|..|B-1 .... ....|B-3 .F1. ....|C-4 A..B ....
..10|..|--- .... ....|B-1 .E.. ....|B-1 7... ....
....|..|D#4 A... ....|B-2 .F1. ....|C-4 A..F ....
..10|..|B-3 7... ....|B-1 .E.. ....|B-1 7... ....
....|.8|B-1 .... ....|A#3 6F1. ....|B-7 3F.8 ....
..10|..|--- .... ....|B-1 7E.. ....|--- .... ....
..10|..|D#4 A... ....|B-3 .F1. ....|C-4 AE.F ....
..10|..|B-1 7... ....|B-1 .E.. ....|B-1 7... ....
....|..|D#4 8... ....|B-4 FF1. ....|C-4 8... ....
....|..|--- .... ....|--- .... ....|--- .... ....
....|..|G#6 7... 11.9|B-3 7... ....|B-7 3F.6 ....
..11|..|A#1 .... ....|A#1 .E.. ....|--- .... ....
..11|..|D#4 A... ....|A#3 FF1. ....|C-4 8E.F ....
..11|..|A#1 7... ....|A#1 7E.. ....|A#1 7... ....
....|..|E-6 .... 21.9|A#2 .F1. ....|C-4 A... ....
..11|..|A#1 .... ....|A#1 .E.. ....|A#1 7... ....
....|..|D#4 A... ....|B-3 .F1. ....|C-4 A... ....
..10|..|B-1 7... ....|B-1 .E.. ....|B-2 7... ....
....|..|D#4 A... ....|B-2 .F1. ....|C-4 A... ....
..10|..|B-1 7... ....|B-1 .E.. ....|B-2 7... ....
....|.8|F-6 .... 21.9|A#3 6F1. ....|B-7 6F.E ....
..10|.8|B-1 .... ....|B-1 7E.. ....|--- .... ....
..10|..|D#4 A... ....|B-3 .F1. ....|C-4 AE.F ....
..10|..|B-1 7... ....|B-1 .E.. ....|B-1 7... ....
....|..|D#4 8... ....|B-4 FF1. ....|C-4 8... ....
....|..|--- .... ....|--- .... ....|--- .... ....
....|..|B-3 7... ....|B-3 7... ....|B-7 D..D ....
..10|..|B-1 .... ....|B-1 .E.. ....|--- .... ....
....|.8|D#4 A... ....|A#4 6F1. ....|C-4 A..F ....
..10|..|G-6 7... 21.9|B-1 7E.. ....|B-2 7... ....
....|..|D#4 A... ....|B-4 .F1. ....|C-4 A... ....
..10|..|G#6 7... 21.9|B-1 .E.. ....|B-2 7... ....
....|..|B-2 .... ....|B-3 .F1. ....|B-7 3F.9 ....
..10|..|B-1 .... ....|B-1 .E.. ....|--- .... ....
..10|..|D#4 A... ....|B-2 .F1. ....|C-4 AE.F ....
..10|..|B-2 7... ....|B-1 .E.. ....|B-2 7... ....
....|..|--- .... ....|A#3 FF1. ....|C-4 8... ....
..10|..|B-1 .... ....|B-1 7E.. ....|--- .... ....
....|..|B-2 .... ....|B-3 .F1. ....|B-7 3F.7 ....
..10|..|B-1 .... ....|B-1 .E.. ....|--- .... ....
....|..|D#4 A... ....|B-4 .F1. ....|C-4 9..E ....
..11|..|A#6 7... 21.9|B-1 .E.. ....|B-1 7E.. ....
....|..|D#4 8... ....|A#3 FF1. ....|C-4 8..F ....
....|..|--- .... ....|--- .... ....|--- .... ....
....|.8|D#4 A... ....|A#3 6... ....|C-4 A... ....
..11|..|A#2 7... ....|A#1 7E.. ....|A#1 7... ....
....|..|C-7 .... 21.9|A#2 .F1. ....|C-4 8..D ....
..11|..|A#1 .... ....|A#1 .E.. ....|A#1 7... ....

[Pattern22]
....|..|--- ...B 1C.1|--- ...D 1C.1|--- .... ....
....|..|--- .... ....|--- .... ....|--- .... ....
....|..|--- .... ....|--- .... ....|--- .... ....
....|..|--- .... ....|--- .... ....|--- .... ....
....|..|--- .... ....|--- .... ....|--- .... ....
....|..|--- .... ....|--- .... ....|--- .... ....
....|..|--- .... ....|--- .... ....|--- .... ....
....|..|--- .... ....|--- .... ....|--- .... ....
....|..|--- ...9 ....|--- ...B ....|--- .... ....
....|..|--- .... ....|--- .... ....|--- .... ....
....|..|--- .... ....|--- .... ....|--- .... ....
....|..|--- .... ....|--- .... ....|--- .... ....
....|..|--- .... ....|--- .... ....|--- .... ....
....|..|--- .... ....|--- .... ....|--- .... ....
....|..|--- .... ....|--- .... ....|--- .... ....
....|..|--- .... ....|--- .... ....|--- .... ....
....|..|--- ...6 ....|--- ...8 91.9|--- .... ....
....|..|--- .... ....|--- .... ....|--- .... ....
....|..|--- .... ....|--- .... ....|--- .... ....
....|..|--- .... ....|--- .... ....|--- .... ....
....|..|--- .... ....|--- .... ....|--- .... ....
....|..|--- .... ....|--- .... ....|--- .... ....
....|..|--- .... ....|--- .... ....|--- .... ....
....|..|--- .... ....|--- .... ....|--- .... ....
....|..|--- .... ....|--- .... ....|--- .... ....
....|..|--- .... ....|--- .... ....|--- .... ....
....|..|--- .... ....|--- .... ....|--- .... ....
....|..|--- .... ....|--- .... ....|--- .... ....
....|..|--- .... ....|--- .... ....|--- .... ....
....|..|--- .... ....|--- .... ....|--- .... ....
....|..|--- .... ....|--- .... ....|--- .... ....
....|..|--- .... ....|--- .... ....|--- .... ....
....|..|C-6 DF1A ....|--- ...6 ....|--- .... ....
....|..|--- .... ....|--- .... ....|--- .... ....
....|..|C-5 .... ....|--- .... ....|--- .... ....
....|..|--- .... ....|--- .... ....|--- .... ....
....|..|D#5 F..C ....|--- .... ....|--- .... ....
....|..|--- .... ....|--- .... ....|--- .... ....
....|..|G-5 D..B ....|--- .... ....|--- .... ....
....|..|--- .... ....|--- .... ....|--- .... ....
....|..|C-5 .... ....|--- ...4 ....|--- .... ....
....|..|--- .... ....|--- .... ....|--- .... ....
....|..|D#4 F..D ....|--- .... ....|--- .... ....
....|..|--- .... ....|--- .... ....|--- .... ....
....|..|G-4 D..C ....|--- .... ....|--- .... ....
....|..|--- .... ....|--- .... ....|--- .... ....
....|..|G-5 .... ....|--- .... ....|--- .... ....
....|..|--- .... ....|--- .... ....|--- .... ....
..A0|..|A#5 ...D ....|C-4 HC.F ....|R-- .... ....
....|..|--- .... ....|--- .... ....|--- .... ....
....|..|D#5 .... ....|C-4 .... ....|--- .... ....
....|..|--- .... ....|--- .... ....|--- .... ....
....|..|F-5 F..F ....|G-1 7F.. ....|--- .... ....
....|..|--- .... ....|--- .... ....|--- .... ....
..A0|..|G#5 D..D ....|C-4 HC.. ....|--- .... ....
....|..|--- .... ....|--- .... ....|--- .... ....
....|..|G-5 F..F ....|C-4 .... ....|--- .... ....
....|..|--- .... ....|--- .... ....|--- .... ....
....|..|B-4 D..D ....|G-1 7F.. ....|--- .... ....
....|..|--- .... ....|--- .... ....|--- .... ....
....|..|D-5 F..F ....|C-4 8... ....|--- .... ....
....|..|--- .... ....|--- .... ....|--- .... ....
..A0|..|F-5 D..D ....|C-4 HC.. ....|--- .... ....
....|..|--- .... ....|--- .... ....|--- .... ....

[Pattern23]
..3C|..|D#5 .... ....|C-4 .... ....|C-4 AC.F ....
....|..|--- .... ....|--- .... ....|C-2 7... ....
....|..|G-4 .... ....|C-4 .... ....|--- .... ....
....|..|--- .... ....|--- .... ....|--- .... ....
....|..|C#5 F..F ....|C-4 8... ....|C-2 .F.. ....
....|..|--- .... ....|--- .... ....|--- .... ....
..50|..|A#5 D..D ....|C-4 H... ....|C-4 AC.. ....
....|..|--- .... ....|--- .... ....|G-1 7... ....
....|..|C-5 .... ....|C-4 9..D ....|--- .... ....
....|..|--- .... ....|--- ...F ....|--- .... ....
....|..|D#4 F..F ....|C-4 8... ....|G-1 .F.. ....
....|..|--- .... ....|--- .... ....|--- .... ....
..43|..|G-4 D..D ....|C-4 H... ....|C-4 AC.. ....
....|..|--- .... ....|--- .... ....|A#1 7... ....
....|..|G-5 .... ....|C-4 8..B ....|--- .... ....
....|..|--- .... ....|--- .... ....|--- .... ....
..3C|..|C-6 .... ....|C-4 H..F ....|C-4 AC.. ....
....|..|--- .... ....|--- .... ....|C-2 7... ....
....|..|C-5 .... ....|C-4 .... ....|--- .... ....
....|..|--- .... ....|--- .... ....|--- .... ....
....|..|D#5 F..F ....|C-4 8... ....|C-2 .F.. ....
....|..|--- .... ....|--- .... ....|--- .... ....
..50|..|G-5 D..D ....|C-4 H... ....|C-4 AC.. ....
....|..|--- .... ....|--- .... ....|G-1 7... ....
....|..|A#5 .... ....|C-4 8... ....|--- .... ....
....|..|--- .... ....|R-- .... ....|--- .... ....
....|..|D#5 .... ....|C-4 .... ....|G-1 .F.. ....
....|..|--- .... ....|R-- .... ....|--- .... ....
..43|..|F#5 F..F ....|C-4 .... ....|A#1 .C.. ....
....|..|--- .... ....|--- .... ....|--- .... ....
....|..|G#5 D..D ....|C-4 H... ....|--- .... ....
....|..|--- .... ....|--- .... ....|--- .... ....
..3C|..|C-6 .... ....|C-4 .... ....|C-4 AC.. ....
....|..|--- .... ....|--- .... ....|C-2 7... ....
....|..|C-5 .... ....|C-4 .... ....|--- .... ....
....|..|--- .... ....|--- .... ....|--- .... ....
....|..|D#5 F..F ....|C-4 8... ....|C-2 .F.. ....
....|..|--- .... ....|--- .... ....|--- .... ....
..50|..|G-5 D..D ....|C-4 H... ....|C-4 AC.. ....
....|..|--- .... ....|--- .... ....|G-1 7... ....
....|..|C-5 .... ....|C-4 9..D ....|--- .... ....
....|..|--- .... ....|--- ...F ....|--- .... ....
....|..|D#4 F..F ....|C-4 8... ....|G-1 .F.. ....
....|..|--- .... ....|--- .... ....|--- .... ....
..43|..|G-4 D..D ....|C-4 H... ....|C-4 AC.. ....
....|..|--- .... ....|--- .... ....|A#1 7... ....
....|..|G-5 .... ....|C-4 8..B ....|--- .... ....
....|..|--- .... ....|--- .... ....|--- .... ....
..3C|..|A#5 .... ....|C-4 H..F ....|C-4 AC.. ....
....|..|--- .... ....|--- .... ....|C-2 7... ....
....|..|D#5 .... ....|C-4 8..D ....|--- .... ....
....|..|--- .... ....|C-4 H..F ....|--- .... ....
....|..|F-5 F..F ....|C-4 8... ....|C-2 .F.. ....
....|..|--- .... ....|--- .... ....|--- .... ....
..50|..|G#5 D..D ....|C-4 H... ....|C-4 AC.. ....
....|..|--- .... ....|--- .... ....|G-1 7... ....
....|..|G-5 F..F ....|C-4 8... ....|--- .... ....
....|..|--- .... ....|R-- .... ....|--- .... ....
....|..|B-4 D..D ....|C-4 .... ....|G-1 .F.. ....
....|..|--- .... ....|R-- .... ....|--- .... ....
..43|..|D-5 F..F ....|C-4 .... ....|A#1 .C.. ....
....|..|--- .... ....|--- .... ....|--- .... ....
....|..|F-5 D..D ....|C-4 H... ....|--- .... ....
....|..|--- .... ....|--- .... ....|--- .... ....

[Pattern24]
..3C|..|D#5 .F5. ....|C-4 .... ....|C-4 AC.. ....
....|..|--- .... ....|--- .... ....|C-2 7... ....
....|..|G-4 .... ....|C-4 .... ....|B-7 .... 11.9
....|..|--- .... ....|--- .... ....|C-2 .... ....
....|..|C#5 F..F ....|C-4 8... ....|C-4 FF1. ....
....|..|--- .... ....|--- .... ....|--- .... ....
..50|..|A#5 D..D ....|C-4 H... ....|C-4 AC.. ....
....|..|--- .... ....|--- .... ....|G-1 7... ....
....|..|C-5 .... ....|C-4 9..D ....|A#7 .... 11.9
....|..|--- .... ....|--- ...F ....|G-1 .... ....
....|..|D#4 F..F ....|C-4 8... ....|G-1 .F.. ....
....|..|--- .... ....|--- .... ....|--- .... ....
..43|..|G-4 D..D ....|C-4 H... ....|C-4 AC.. ....
....|..|--- .... ....|--- .... ....|A#1 7... ....
....|..|G-5 .... ....|C-4 8..B ....|A-7 .... 11.9
....|..|--- .... ....|--- .... ....|A#1 .... ....
..3C|..|C-6 .... ....|C-4 H..F ....|C-4 AC.. ....
....|..|--- .... ....|--- .... ....|C-2 7... ....
....|..|C-5 .... ....|C-4 .... ....|G#7 .... 11.9
....|..|--- .... ....|--- .... ....|C-2 .... ....
....|..|D#5 F..F ....|C-4 8... ....|C-4 FF1. ....
....|..|--- .... ....|--- .... ....|--- .... ....
..32|..|G-5 D..D ....|C-4 H... ....|C-4 AC.. ....
....|..|--- .... ....|--- .... ....|D#2 7... ....
....|..|A#5 .... ....|C-4 8... ....|G-7 .... 11.9
....|..|--- .... ....|D#2 7... ....|D#2 .... ....
....|..|D#5 .... ....|C-4 8... ....|D#2 .F.. ....
....|..|--- .... ....|D#2 7... ....|--- .... ....
..38|..|F#5 F..F ....|C-4 8... ....|C#2 .C.. ....
....|..|--- .... ....|--- .... ....|--- .... ....
....|..|G#5 D..D ....|C-4 H... ....|F-7 .... 11.9
....|..|--- .... ....|--- .... ....|C#2 .... ....
..3C|..|C-6 .... ....|C-4 .... ....|C-4 AC.. ....
....|..|--- .... ....|--- .... ....|C-2 7... ....
....|..|C-5 .... ....|C-4 .... ....|D#7 .... 11.9
....|..|--- .... ....|--- .... ....|C-2 .... ....
....|..|D#5 F..F ....|C-4 8... ....|C-4 FF1. ....
....|..|--- .... ....|--- .... ....|--- .... ....
..50|..|G-5 D..D ....|C-4 H... ....|C-4 AC.. ....
....|..|--- .... ....|--- .... ....|G-1 7... ....
....|..|C-5 .... ....|C-4 9..D ....|D-7 .... 11.9
....|..|--- .... ....|--- ...F ....|G-1 .... ....
....|..|D#4 F..F ....|C-4 8... ....|G-1 .F.. ....
....|..|--- .... ....|--- .... ....|--- .... ....
..43|..|G-4 D..D ....|C-4 H... ....|C-4 AC.. ....
....|..|--- .... ....|--- .... ....|A#1 7... ....
....|..|G-5 .... ....|C-4 8..B ....|C#7 .... 11.9
....|..|--- .... ....|--- .... ....|A#1 .... ....
..3C|..|A#5 .... ....|C-4 H..F ....|C-4 AC.. ....
....|..|--- .... ....|--- .... ....|C-2 7... ....
....|..|D#5 .... ....|C-4 8..D ....|C-7 .... 11.9
....|..|--- .... ....|C-4 H..F ....|C-2 .... ....
....|..|F-5 F..F ....|C-4 8... ....|C-4 FF1. ....
....|..|--- .... ....|--- .... ....|--- .... ....
..50|..|G#5 D..D ....|C-4 H... ....|C-4 AC.. ....
....|..|--- .... ....|--- .... ....|G-1 7... ....
....|..|G-5 F..F ....|C-4 8... ....|B-6 .... 11.9
....|..|--- .... ....|G-1 7... ....|G-1 .... ....
....|..|B-4 D..D ....|C-4 8... ....|G-1 .F.. ....
....|..|--- .... ....|G-1 7... ....|--- .... ....
..43|..|D-5 F..F ....|C-4 8... ....|A#1 .C.. ....
....|..|--- .... ....|--- .... ....|--- .... ....
....|..|F-5 D..D ....|C-4 H... ....|A#6 .... 11.9
....|..|--- .... ....|--- .... ....|A#1 .... ....

[Pattern25]
..3C|..|D#5 DC6F ....|C-4 .... ....|C-4 AC.. ....
....|..|C-2 7F.. ....|--- .... ....|C-2 7... ....
..3C|..|G-4 DC6. ....|C-4 .... ....|B-7 .... 11.9
....|..|C-2 7F.. ....|--- .... ....|C-2 .... ....
....|..|C#5 FF7. ....|C-4 8... ....|C-4 FF1. ....
....|..|--- .... ....|--- .... ....|--- .... ....
..50|..|A#5 DC6. ....|C-4 H... ....|C-4 AC.. ....
....|..|G-1 7F.. ....|--- .... ....|G-1 7... ....
..50|..|C-5 DC6. ....|C-4 9..D ....|A#7 .... 11.9
....|..|G-1 7F.. ....|--- ...F ....|G-1 .... ....
....|..|D#4 FF7. ....|C-4 8... ....|G-3 FF1. ....
....|..|--- .... ....|--- .... ....|--- .... ....
..32|..|G-4 DC6. ....|C-4 H... ....|C-4 AC.. ....
....|..|D#2 7F.. ....|--- .... ....|D#2 7... ....
..32|..|G-5 DC6. ....|C-4 8..B ....|A-7 .... 11.9
....|..|D#2 7F.. ....|--- .... ....|D#2 .... ....
..3C|..|C-6 DC6. ....|C-4 H..F ....|C-4 A... ....
....|..|C-2 7F.. ....|--- .... ....|C-2 7... ....
..3C|..|C-5 DC6. ....|C-4 .... ....|G#7 .... 11.9
....|..|C-2 7F.. ....|--- .... ....|C-2 .... ....
....|..|D#5 FF7. ....|C-4 8... ....|C-4 FF1. ....
....|..|--- .... ....|--- .... ....|--- .... ....
..32|..|G-5 DC6. ....|C-4 H... ....|C-4 AC.. ....
....|..|D#2 7F.. ....|--- .... ....|D#2 7... ....
....|..|A#5 FF7. ....|C-4 8... ....|G-7 .... 11.9
....|..|D#2 7F.. ....|D#2 7... ....|D#2 .... ....
....|..|D#5 FF7. ....|C-4 8... ....|D#3 FF5. ....
....|..|D#2 7F.. ....|D#2 7... ....|R-- .... ....
..38|..|F#5 FF7. ....|C-4 8... ....|C#2 7C.. ....
....|..|--- .... ....|--- .... ....|--- .... ....
..38|..|G#5 DC6. ....|C-4 H... ....|F-7 .... 11.9
....|..|C#2 7F.. ....|--- .... ....|C#2 .... ....
..3C|..|C-6 DC6. ....|C-4 .... ....|C-4 A... ....
....|..|C-2 7F.. ....|--- .... ....|C-2 7... ....
..3C|..|C-5 DC6. ....|C-4 .... ....|D#7 .... 11.9
....|..|C-2 7F.. ....|--- .... ....|C-2 .... ....
....|..|D#5 FF7. ....|C-4 8... ....|C-4 FF5. ....
....|..|--- .... ....|--- .... ....|--- .... ....
..50|..|G-5 DC6. ....|C-4 H... ....|C-4 AC.. ....
....|..|G-1 7F.. ....|--- .... ....|G-1 7... ....
..50|..|C-5 DC6. ....|C-4 9..D ....|D-7 .... 11.9
....|..|G-1 7F.. ....|--- ...F ....|G-1 .... ....
....|..|D#4 FF7. ....|C-4 8... ....|G-3 FF5. ....
....|..|--- .... ....|--- .... ....|--- .... ....
..32|..|G-4 DC6. ....|C-4 H... ....|C-4 AC.. ....
....|..|D#2 7F.. ....|--- .... ....|D#2 7... ....
..32|..|G-5 DC6. ....|C-4 8..B ....|C#7 .... 11.9
....|..|D#2 7F.. ....|--- .... ....|D#2 .... ....
..3C|..|A#5 DC6. ....|C-4 H..F ....|C-4 A... ....
....|..|C-2 7F.. ....|--- .... ....|C-2 7... ....
..3C|..|D#5 DC6. ....|C-4 8..D ....|C-7 .... 11.9
....|..|C-2 7F.. ....|C-4 H..F ....|C-2 .... ....
....|..|F-5 FF7. ....|C-4 8... ....|C-4 FF5. ....
....|..|--- .... ....|--- .... ....|--- .... ....
..50|..|G#5 DC6. ....|C-4 H... ....|C-4 AC.. ....
....|..|G-1 7F.. ....|--- .... ....|G-1 7... ....
....|..|G-5 FF7. ....|C-4 8... ....|B-6 .... 11.9
....|..|--- .... ....|G-1 7... ....|G-1 .... ....
....|..|B-4 .... ....|C-4 8... ....|G-3 FF6. ....
....|..|G-1 7F.. ....|G-1 7... ....|R-- .... ....
..43|..|D-5 FF7. ....|C-4 8... ....|A#1 7C.. ....
....|..|--- .... ....|--- .... ....|--- .... ....
..43|..|F-5 DC6. ....|C-4 H... ....|A#6 .... 11.9
....|..|A#1 7F.. ....|--- .... ....|A#1 .... ....

[Pattern26]
..3C|..|D#4 AF.F ....|C-4 .... ....|C-4 AC.. ....
....|..|C-2 7... ....|--- .... ....|C-2 7... ....
..3C|..|G-4 DC6. ....|C-4 .... ....|B-7 .... 11.9
....|..|C-2 7F.. ....|--- .... ....|--- .... ....
....|..|C#5 FF7. ....|C-4 8... ....|C-4 FF1. ....
....|..|--- .... ....|--- .... ....|--- .... ....
..50|..|A#5 DC6. ....|C-4 H... ....|C-4 AC.. ....
....|..|G-1 7F.. ....|--- .... ....|G-1 7... ....
..50|..|C-5 DC6. ....|C-4 9..D ....|A#7 .... 11.9
....|..|G-1 7F.. ....|--- ...F ....|--- .... ....
....|..|D#4 FF7. ....|C-4 8... ....|G-3 FF1. ....
....|..|--- .... ....|--- .... ....|--- .... ....
..32|..|D#4 AF.. ....|C-4 H... ....|C-4 AC.. ....
....|..|D#2 7... ....|--- .... ....|D#2 7... ....
..32|..|G-5 DC6. ....|C-4 8..B ....|A-7 .... 11.9
....|..|D#2 7F.. ....|--- .... ....|--- .... ....
..3C|..|D#4 A... ....|C-4 H..F ....|C-4 AC.. ....
....|..|C-2 7... ....|--- .... ....|C-2 7... ....
..3C|..|C-5 DC6. ....|C-4 .... ....|G#7 .... 11.9
....|..|C-2 7F.. ....|--- .... ....|--- .... ....
....|..|D#5 FF7. ....|C-4 8... ....|C-4 FF1. ....
....|..|--- .... ....|--- .... ....|--- .... ....
..32|..|G-5 DC6. ....|C-4 H... ....|C-4 AC.. ....
....|..|D#2 7F.. ....|--- .... ....|D#2 7... ....
....|..|A#5 FF7. ....|C-4 8... ....|G-7 .... 11.9
....|..|D#2 7F.. ....|D#2 7... ....|--- .... ....
....|..|D#5 FF7. ....|C-4 8... ....|D#3 FF5. ....
....|..|D#2 7F.. ....|D#2 7... ....|R-- .... ....
..38|..|F#5 FF7. ....|C-4 8... ....|C#2 7C.. ....
....|..|--- .... ....|--- .... ....|--- .... ....
..38|..|G#5 DC6. ....|C-4 H... ....|F-7 .... 11.9
....|..|C#2 7F.. ....|--- .... ....|--- .... ....
..3C|..|D#4 A... ....|C-4 .... ....|C-4 AC.. ....
....|..|C-2 7... ....|--- .... ....|C-2 7... ....
..3C|..|C-5 DC6. ....|C-4 .... ....|D#7 .... 11.9
....|..|C-2 7F.. ....|--- .... ....|--- .... ....
....|..|D#5 FF7. ....|C-4 8... ....|C-4 FF5. ....
....|..|--- .... ....|--- .... ....|--- .... ....
..50|..|G-5 DC6. ....|C-4 H... ....|C-4 AC.. ....
....|..|G-1 7F.. ....|--- .... ....|G-1 7... ....
..50|..|C-5 DC6. ....|C-4 9..D ....|D-7 .... 11.9
....|..|G-1 7F.. ....|--- ...F ....|--- .... ....
....|..|D#4 FF7. ....|C-4 8... ....|G-3 FF5. ....
....|..|--- .... ....|--- .... ....|--- .... ....
..32|..|D#4 AF.. ....|C-4 H... ....|C-4 AC.. ....
....|..|D#2 7... ....|--- .... ....|D#2 7... ....
..32|..|G-5 DC6. ....|C-4 8..B ....|C#7 .... 11.9
....|..|D#2 7F.. ....|--- .... ....|--- .... ....
..3C|..|D#4 A... ....|C-4 H..F ....|C-4 AC.. ....
....|..|C-2 7... ....|--- .... ....|C-2 7... ....
..3C|..|D#5 DC6. ....|C-4 8..D ....|C-7 .... 11.9
....|..|C-2 7F.. ....|C-4 H..F ....|--- .... ....
....|..|F-5 FF7. ....|C-4 8... ....|C-4 FF5. ....
....|..|--- .... ....|--- .... ....|--- .... ....
..50|..|G#5 DC6. ....|C-4 H... ....|C-4 AC.. ....
....|..|G-1 7F.. ....|--- .... ....|G-1 7... ....
....|..|G-5 FF7. ....|C-4 8... ....|B-6 .... 11.9
....|..|--- .... ....|G-1 7... ....|--- .... ....
....|..|B-4 .... ....|C-4 8... ....|G-3 FF6. ....
....|..|G-1 7F.. ....|G-1 7... ....|R-- .... ....
..43|..|D-5 FF7. ....|C-4 8... ....|A#1 7C.. ....
....|..|--- .... ....|--- .... ....|--- .... ....
..43|..|F-5 DC6. ....|C-4 H... ....|A#6 .... 11.9
....|..|A#1 7F.. ....|--- .... ....|--- .... ....

[Pattern27]
..3C|..|D#4 AF.F ....|C-4 .... ....|C-4 AC.. ....
....|..|C-2 7... ....|--- .... ....|C-2 7... ....
..3C|..|G-4 DC6. ....|C-4 .... ....|G#6 .... 11.9
....|..|C-2 7F.. ....|--- .... ....|--- .... ....
....|..|C#5 FF7. ....|C-4 8... ....|C-4 FF1. ....
....|..|--- .... ....|--- .... ....|--- .... ....
..50|..|A#5 DC6. ....|C-4 H... ....|C-4 AC.. ....
....|..|G-1 7F.. ....|--- .... ....|G-1 7... ....
..50|..|C-5 DC6. ....|C-4 9..D ....|G-6 .... 11.9
....|..|G-1 7F.. ....|--- ...F ....|--- .... ....
....|..|D#4 FF7. ....|C-4 8... ....|G-3 FF1. ....
....|..|--- .... ....|--- .... ....|--- .... ....
..32|..|D#4 AF.. ....|C-4 H... ....|C-4 AC.. ....
....|..|D#2 7... ....|--- .... ....|D#2 7... ....
..32|..|G-5 DC6. ....|C-4 8..B ....|F#6 .... 11.9
....|..|D#2 7F.. ....|--- .... ....|--- .... ....
..3C|..|D#4 A... ....|C-4 H..F ....|C-4 AC.. ....
....|..|C-2 7... ....|--- .... ....|C-2 7... ....
..3C|..|C-5 DC6. ....|C-4 .... ....|F-6 .... 11.9
....|..|C-2 7F.. ....|--- .... ....|--- .... ....
....|..|D#5 FF7. ....|C-4 8... ....|C-4 FF1. ....
....|..|--- .... ....|--- .... ....|--- .... ....
..32|..|G-5 DC6. ....|C-4 H... ....|C-4 AC.. ....
....|..|D#2 7F.. ....|--- .... ....|D#2 7... ....
....|..|A#5 FF7. ....|C-4 8... ....|E-6 .... 11.9
....|..|D#2 7F.. ....|D#2 7... ....|--- .... ....
....|..|D#5 FF7. ....|C-4 8... ....|D#3 FF5. ....
....|..|D#2 7F.. ....|D#2 7... ....|R-- .... ....
..38|..|F#5 FF7. ....|C-4 8... ....|C#2 7C.. ....
....|..|--- .... ....|--- .... ....|--- .... ....
..38|..|G#5 DC6. ....|C-4 H... ....|D#6 .... 11.9
....|..|C#2 7F.. ....|--- .... ....|--- .... ....
..3C|..|D#4 A... ....|C-4 .... ....|C-4 AC.. ....
....|..|C-2 7... ....|--- .... ....|C-2 7... ....
..3C|..|C-5 DC6. ....|C-4 .... ....|D-6 .... 11.9
....|..|C-2 7F.. ....|--- .... ....|--- .... ....
....|..|D#5 FF7. ....|C-4 8... ....|C-4 FF5. ....
....|..|--- .... ....|--- .... ....|--- .... ....
..50|..|G-5 DC6. ....|C-4 H... ....|C-4 AC.. ....
....|..|G-1 7F.. ....|--- .... ....|G-1 7... ....
..50|..|C-5 DC6. ....|C-4 9..D ....|C#6 .... 11.9
....|..|G-1 7F.. ....|--- ...F ....|--- .... ....
....|..|D#4 FF7. ....|C-4 8... ....|G-3 FF5. ....
....|..|--- .... ....|--- .... ....|--- .... ....
..32|..|D#4 AF.. ....|C-4 H... ....|C-4 AC.. ....
....|..|D#2 7... ....|--- .... ....|D#2 7... ....
..32|..|G-5 DC6. ....|C-4 8..B ....|C-6 .... 11.9
....|..|D#2 7F.. ....|--- .... ....|--- .... ....
..3C|..|D#4 A... ....|C-4 H..F ....|C-4 AC.. ....
....|..|C-2 7... ....|--- .... ....|C-2 7... ....
..3C|..|D#5 DC6. ....|C-4 8..D ....|B-5 .... 11.9
....|..|C-2 7F.. ....|C-4 H..F ....|--- .... ....
....|..|F-5 FF7. ....|C-4 8... ....|C-4 FF5. ....
....|..|--- .... ....|--- .... ....|--- .... ....
..50|..|G#5 DC6. ....|C-4 H... ....|C-4 AC.. ....
....|..|G-1 7F.. ....|--- .... ....|G-1 7... ....
....|..|G-5 FF7. ....|C-4 8... ....|A#5 .... 11.9
....|..|--- .... ....|G-1 7... ....|--- .... ....
....|..|B-4 .... ....|C-4 8... ....|G-3 FF6. ....
....|..|G-1 7F.. ....|G-1 7... ....|R-- .... ....
..43|..|D-5 FF7. ....|C-4 8... ....|A#1 7C.. ....
....|..|--- .... ....|--- .... ....|--- .... ....
..43|..|F-5 DC6. ....|C-4 H... ....|G#5 .... 11.9
....|..|A#1 7F.. ....|--- .... ....|--- .... ....

[Pattern28]
..1E|.D|D#5 1F5D ....|C-4 .F.. ....|C-1 .E.. ....
....|.8|--- .... ....|C-5 6... ....|--- .... ....
....|.8|G-4 .... ....|--- .... ....|--- .... ....
....|.8|D#5 ...8 ....|--- .... ....|--- .... ....
....|..|C#5 ...D ....|R-- .... ....|--- .... ....
....|..|G-4 ...8 ....|--- .... ....|--- .... ....
....|.D|A#5 ...D ....|C-4 H..A ....|--- .... ....
....|.8|C#5 ...8 ....|C-5 6... ....|--- .... ....
....|.8|C-5 ...C ....|--- .... ....|--- .... ....
....|.8|A#5 ...7 ....|--- .... ....|--- .... ....
....|..|D#4 ...C ....|R-- .... ....|--- .... ....
....|..|C-5 ...7 ....|--- .... ....|--- .... ....
....|.D|G-4 ...C ....|C-4 H..7 ....|--- .... ....
....|.8|D#4 ...7 ....|C-5 6... ....|--- .... ....
....|.8|G-5 ...C ....|--- .... ....|--- .... ....
....|.8|G-4 ...7 ....|--- .... ....|--- .... ....
....|..|C-6 ...B ....|--- .... ....|--- .... ....
....|..|G-5 ...6 ....|R-- .... ....|--- .... ....
....|..|C-5 ...B ....|--- .... ....|--- .... ....
....|..|C-6 ...6 ....|--- .... ....|--- .... ....
....|..|D#5 ...B ....|--- .... ....|--- .... ....
....|..|C-5 ...6 ....|--- .... ....|--- .... ....
....|..|G-5 ...B ....|--- .... ....|--- .... ....
....|..|D#5 ...6 ....|--- .... ....|--- .... ....
....|..|A#5 ...B ....|--- .... ....|--- .... ....
....|..|G-5 ...6 ....|--- .... ....|--- .... ....
....|..|D#5 ...B ....|--- .... ....|--- .... ....
....|..|A#5 ...6 ....|--- .... ....|--- .... ....
....|..|F#5 ...B ....|--- .... ....|--- .... ....
....|..|D#5 ...6 ....|--- .... ....|--- .... ....
....|..|G#5 ...B ....|--- .... ....|--- .... ....
....|..|F#5 ...6 ....|--- .... ....|--- .... ....
....|..|C-6 ...A ....|--- .... ....|--- .... ....
....|..|G#5 ...5 ....|--- .... ....|--- .... ....
....|..|C-5 ...A ....|--- .... ....|--- .... ....
....|..|C-6 ...5 ....|--- .... ....|--- .... ....
....|..|D#5 ...A ....|--- .... ....|--- .... ....
....|..|C-5 ...5 ....|--- .... ....|--- .... ....
....|..|G-5 ...A ....|--- .... ....|--- .... ....
....|..|D#5 ...5 ....|--- .... ....|--- .... ....
....|..|C-5 ...9 ....|--- .... ....|--- .... ....
....|..|G-5 ...4 ....|--- .... ....|--- .... ....
....|..|D#4 ...9 ....|--- .... ....|--- .... ....
....|..|C-5 ...4 ....|--- .... ....|--- .... ....
....|..|G-4 ...9 ....|--- .... ....|--- .... ....
....|..|D#4 ...4 ....|--- .... ....|--- .... ....
....|..|G-5 ...9 ....|--- .... ....|--- .... ....
....|..|G-4 ...4 ....|--- .... ....|--- .... ....
....|..|A#5 ...8 ....|--- .... ....|--- .... ....
....|..|G-5 ...3 ....|--- .... ....|--- .... ....
....|..|D#5 ...8 ....|--- .... ....|--- .... ....
....|..|A#5 ...3 ....|--- .... ....|--- .... ....
....|..|F-5 ...8 ....|--- .... ....|--- .... ....
....|..|D#5 ...3 ....|--- .... ....|--- .... ....
....|..|G#5 ...8 ....|--- .... ....|--- .... ....
....|..|F-5 ...3 ....|--- .... ....|--- .... ....
....|..|G-5 ...7 ....|--- .... ....|--- .... ....
....|..|G#5 ...2 ....|--- .... ....|--- .... ....
....|..|B-4 ...7 ....|--- .... ....|--- .... ....
....|..|G-5 ...2 ....|--- .... ....|--- .... ....
....|..|D-5 ...7 ....|--- .... ....|--- .... ....
....|..|B-4 ...2 ....|--- .... ....|--- .... ....
....|..|F-5 ...7 ....|--- .... ....|--- .... ....
....|..|D-5 ...2 ....|--- .... ....|--- .... ....

[Pattern29]
....|..|D#5 ...6 ....|C-2 7F1B ....|--- .... ....
....|..|F-5 ...2 ....|--- .... ....|--- .... ....
....|..|G-4 ...6 ....|--- .... ....|--- .... ....
....|..|D#5 ...2 ....|--- .... ....|--- .... ....
....|..|C#5 ...6 ....|R-- .... ....|--- .... ....
....|..|G-4 ...2 ....|--- .... ....|--- .... ....
....|..|A#5 ...6 ....|C-2 ...8 ....|--- .... ....
....|..|C#5 ...2 ....|--- .... ....|--- .... ....
....|..|C-5 ...5 ....|--- .... ....|--- .... ....
....|..|A#5 ...2 ....|--- .... ....|--- .... ....
....|..|D#4 ...5 ....|R-- .... ....|--- .... ....
....|..|C-5 ...2 ....|--- .... ....|--- .... ....
....|..|G-4 ...5 ....|--- .... ....|--- .... ....
....|..|D#4 ...2 ....|--- .... ....|--- .... ....
....|..|G-5 ...5 ....|--- .... ....|--- .... ....
....|..|G-4 ...2 ....|--- .... ....|--- .... ....
....|..|C-6 ...4 ....|--- .... ....|--- .... ....
....|..|G-5 ...1 ....|--- .... ....|--- .... ....
....|..|C-5 ...4 ....|--- .... ....|--- .... ....
....|..|C-6 ...1 ....|--- .... ....|--- .... ....
....|..|D#5 ...4 ....|C-8 3F.7 ....|--- .... ....
....|..|C-5 ...1 ....|--- .... ....|--- .... ....
....|..|G-5 ...4 ....|--- ...2 ....|--- .... ....
....|..|D#5 ...1 ....|--- .... ....|--- .... ....
....|..|A#5 ...3 ....|--- .... ....|--- .... ....
....|..|G-5 ...1 ....|--- .... ....|--- .... ....
....|..|D#5 ...3 ....|C-8 ...5 ....|--- .... ....
....|..|A#5 ...1 ....|--- .... ....|--- .... ....
....|..|F#5 ...2 ....|--- ...1 ....|--- .... ....
....|..|D#5 ...1 ....|--- .... ....|--- .... ....
....|..|G#5 ...2 ....|--- .... ....|--- .... ....
....|..|F#5 ...1 ....|--- .... ....|--- .... ....
....|..|R-- .... ....|R-- .... ....|--- .... ....
....|..|--- .... ....|--- .... ....|--- .... ....
....|..|--- .... ....|--- .... ....|--- .... ....
....|..|--- .... ....|--- .... ....|--- .... ....
....|..|--- .... ....|--- .... ....|--- .... ....
....|..|--- .... ....|--- .... ....|--- .... ....
....|..|--- .... ....|--- .... ....|--- .... ....
....|..|--- .... ....|--- .... ....|--- .... ....
....|..|--- .... ....|--- .... ....|--- .... ....
....|..|--- .... ....|--- .... ....|--- .... ....
....|..|--- .... ....|--- .... ....|--- .... ....
....|..|--- .... ....|--- .... ....|--- .... ....
....|..|--- .... ....|--- .... ....|--- .... ....
....|..|--- .... ....|--- .... ....|--- .... ....
....|..|--- .... ....|--- .... ....|--- .... ....
....|..|--- .... ....|--- .... ....|--- .... ....
....|..|--- .... ....|--- .... ....|--- .... ....
....|..|--- .... ....|--- .... ....|--- .... ....
....|..|--- .... ....|--- .... ....|--- .... ....
....|..|--- .... ....|--- .... ....|--- .... ....
....|..|--- .... ....|--- .... ....|--- .... ....
....|..|--- .... ....|--- .... ....|--- .... ....
....|..|--- .... ....|--- .... ....|--- .... ....
....|..|--- .... ....|--- .... ....|--- .... ....
....|..|--- .... ....|--- .... ....|--- .... ....
....|..|--- .... ....|--- .... ....|--- .... ....
....|..|--- .... ....|--- .... ....|--- .... ....
....|..|--- .... ....|--- .... ....|--- .... ....
....|..|--- .... ....|--- .... ....|--- .... ....
....|..|--- .... ....|--- .... ....|--- .... ....
....|..|--- .... ....|--- .... ....|--- .... ....
....|..|--- .... ....|--- .... ....|--- .... ....

[Pattern30]
...F|.D|D#4 A... ....|C-4 6F1. ....|C-4 AE.F ....
....|.D|C-3 7... ....|C-2 .... ....|C-2 7... ....
....|.D|D#4 A... ....|C-3 .... ....|C-4 A... ....
...F|..|C-3 7... ....|C-3 7E.. ....|C-2 7... ....
....|.8|G#7 .... 11.9|B-3 6F1. ....|C-8 6F.E ....
...F|.8|C-2 .... ....|C-2 7E.. ....|--- .... ....
...F|..|D#4 A... ....|C-4 .F1. ....|C-4 AE.F ....
...F|..|C-3 7... ....|C-2 .E.. ....|C-2 7... ....
....|..|D#4 8... ....|C-5 FF1. ....|C-4 8... ....
....|..|--- .... ....|--- .... ....|--- .... ....
....|..|D#7 7... 11.9|C-4 7... ....|C-8 D..D ....
...F|..|C-2 .... ....|C-2 .E.. ....|--- .... ....
....|.8|D#4 A... ....|B-4 6F1. ....|C-4 A..F ....
...F|..|D-7 7... 11.9|C-2 7E.. ....|C-2 7... ....
....|..|D#4 A... ....|C-5 .F1. ....|C-4 A... ....
...F|..|C#7 7... 11.9|C-2 .E.. ....|C-2 7... ....
....|..|C-2 .... ....|C-4 .F1. ....|C-4 A..B ....
...F|..|--- .... ....|C-2 .E.. ....|C-2 7... ....
....|..|D#4 A... ....|C-3 .F1. ....|C-4 A..F ....
...F|..|C-4 7... ....|C-2 .E.. ....|C-2 7... ....
....|.8|C-2 .... ....|B-3 6F1. ....|C-8 3F.8 ....
...F|..|--- .... ....|C-2 7E.. ....|--- .... ....
...F|..|D#4 A... ....|C-4 .F1. ....|C-4 AE.F ....
...F|..|C-2 7... ....|C-2 .E.. ....|C-2 7... ....
....|..|D#4 8... ....|C-5 FF1. ....|C-4 8... ....
....|..|--- .... ....|--- .... ....|--- .... ....
....|..|G#6 7... 11.9|C-4 7... ....|C-8 3F.6 ....
..10|..|B-1 .... ....|B-1 .E.. ....|--- .... ....
..10|..|D#4 A... ....|B-3 FF1. ....|C-4 8E.F ....
..10|..|B-1 7... ....|B-1 7E.. ....|B-1 7... ....
....|..|E-6 .... 21.9|B-2 .F1. ....|C-4 A... ....
..10|..|B-1 .... ....|B-1 .E.. ....|B-1 7... ....
....|..|D#4 A... ....|C-4 .F1. ....|C-4 A... ....
...F|..|C-2 7... ....|C-2 .E.. ....|C-2 7... ....
....|..|D#4 A... ....|C-3 .F1. ....|C-4 A... ....
...F|..|C-2 7... ....|C-2 .E.. ....|C-2 7... ....
....|.8|F-6 .... 21.9|B-3 6F1. ....|C-8 6F.E ....
...F|.8|C-2 .... ....|C-2 7E.. ....|--- .... ....
...F|..|D#4 A... ....|C-4 .F1. ....|C-4 AE.F ....
...F|..|C-2 7... ....|C-2 .E.. ....|C-2 7... ....
....|..|D#4 8... ....|C-5 FF1. ....|C-4 8... ....
....|..|--- .... ....|--- .... ....|--- .... ....
....|..|C-4 7... ....|C-4 7... ....|C-8 D..D ....
...F|..|C-2 .... ....|C-2 .E.. ....|--- .... ....
...F|.8|D#4 AE.. ....|B-4 6F1. ....|C-4 A..F ....
...F|..|G-6 7... 21.9|C-2 7E.. ....|C-3 7... ....
....|..|D#4 A... ....|C-5 .F1. ....|C-4 A... ....
...F|..|G#6 7... 21.9|C-2 .E.. ....|C-3 7... ....
....|..|C-3 .... ....|C-4 .F1. ....|C-8 3F.9 ....
...F|..|C-2 .... ....|C-2 .E.. ....|--- .... ....
...F|..|D#4 A... ....|C-3 .F1. ....|C-4 AE.F ....
...F|..|C-3 7... ....|C-2 .E.. ....|C-3 7... ....
....|..|--- .... ....|B-3 FF1. ....|C-4 8... ....
...F|..|C-2 .... ....|C-2 7E.. ....|--- .... ....
....|..|C-3 .... ....|C-4 .F1. ....|C-8 3F.7 ....
...F|..|C-2 .... ....|C-2 .E.. ....|--- .... ....
....|..|D#4 A... ....|C-5 .F1. ....|C-4 9..E ....
..10|..|A#6 7... 21.9|C-2 .E.. ....|B-1 7E.. ....
....|..|D#4 8... ....|B-3 FF1. ....|C-4 8..F ....
....|..|--- .... ....|--- .... ....|--- .... ....
....|.8|D#4 A... ....|B-3 6... ....|C-4 A... ....
..10|..|B-2 7... ....|B-1 7E.. ....|B-1 7... ....
....|..|C-7 .... 21.9|B-2 .F1. ....|C-4 8..D ....
..10|..|B-1 .... ....|B-1 .E.. ....|B-1 7... ....

[Pattern31]
....|..|R-- .... ....|R-- .... ....|R-- .... ....
....|..|--- .... ....|--- .... ....|--- .... ....
....|..|--- .... ....|--- .... ....|--- .... ....
....|..|--- .... ....|--- .... ....|--- .... ....
....|..|--- .... ....|--- .... ....|--- .... ....
....|..|--- .... ....|--- .... ....|--- .... ....
....|..|--- .... ....|--- .... ....|--- .... ....
....|..|--- .... ....|--- .... ....|--- .... ....
....|..|--- .... ....|--- .... ....|--- .... ....
....|..|--- .... ....|--- .... ....|--- .... ....
....|..|--- .... ....|--- .... ....|--- .... ....
....|..|--- .... ....|--- .... ....|--- .... ....
....|..|--- .... ....|--- .... ....|--- .... ....
....|..|--- .... ....|--- .... ....|--- .... ....
....|..|--- .... ....|--- .... ....|--- .... ....
....|..|--- .... ....|--- .... ....|--- .... ....
....|..|--- .... ....|--- .... ....|--- .... ....
....|..|--- .... ....|--- .... ....|--- .... ....
....|..|--- .... ....|--- .... ....|--- .... ....
....|..|--- .... ....|--- .... ....|--- .... ....
....|..|--- .... ....|--- .... ....|--- .... ....
....|..|--- .... ....|--- .... ....|--- .... ....
....|..|--- .... ....|--- .... ....|--- .... ....
....|..|--- .... ....|--- .... ....|--- .... ....
....|..|--- .... ....|--- .... ....|--- .... ....
....|..|--- .... ....|--- .... ....|--- .... ....
....|..|--- .... ....|--- .... ....|--- .... ....
....|..|--- .... ....|--- .... ....|--- .... ....
....|..|--- .... ....|--- .... ....|--- .... ....
....|..|--- .... ....|--- .... ....|--- .... ....
....|..|--- .... ....|--- .... ....|--- .... ....
....|..|--- .... ....|--- .... ....|--- .... ....
....|..|--- .... ....|--- .... ....|--- .... ....
....|..|--- .... ....|--- .... ....|--- .... ....
....|..|--- .... ....|--- .... ....|--- .... ....
....|..|--- .... ....|--- .... ....|--- .... ....
....|..|--- .... ....|--- .... ....|--- .... ....
....|..|--- .... ....|--- .... ....|--- .... ....
....|..|--- .... ....|--- .... ....|--- .... ....
....|..|--- .... ....|--- .... ....|--- .... ....
....|..|--- .... ....|--- .... ....|--- .... ....
....|..|--- .... ....|--- .... ....|--- .... ....
....|..|--- .... ....|--- .... ....|--- .... ....
....|..|--- .... ....|--- .... ....|--- .... ....
....|..|--- .... ....|--- .... ....|--- .... ....
....|..|--- .... ....|--- .... ....|--- .... ....
....|..|--- .... ....|--- .... ....|--- .... ....
....|..|--- .... ....|--- .... ....|--- .... ....
....|..|--- .... ....|--- .... ....|--- .... ....
....|..|--- .... ....|--- .... ....|--- .... ....
....|..|--- .... ....|--- .... ....|--- .... ....
....|..|--- .... ....|--- .... ....|--- .... ....
....|..|--- .... ....|--- .... ....|--- .... ....
....|..|--- .... ....|--- .... ....|--- .... ....
....|..|--- .... ....|--- .... ....|--- .... ....
....|..|--- .... ....|--- .... ....|--- .... ....
....|..|--- .... ....|--- .... ....|--- .... ....
....|..|--- .... ....|--- .... ....|--- .... ....
....|..|--- .... ....|--- .... ....|--- .... ....
....|..|--- .... ....|--- .... ....|--- .... ....
....|..|--- .... ....|--- .... ....|--- .... ....
....|..|--- .... ....|--- .... ....|--- .... ....
....|..|--- .... ....|--- .... ....|--- .... ....
....|..|--- .... ....|--- .... ....|--- .... ....

